<?xml version="1.0" encoding="UTF-8" standalone="no"?>
<!-- Converted with SVG Converter - Version 0.9.6 (Compiled Tue Jul 17 14:31:28 2018) - Copyright (C) 2011 Nokia -->

<svg
   viewBox="0 0 1626 554"
   preserveAspectRatio="xMidYMid meet"
   id="svg692"
   version="1.0"
   width="1626"
   height="554"
   sodipodi:docname="MyHealthPlan-horiz.svg"
   inkscape:version="1.1 (1:1.1+202105261517+ce6663b3b7)"
   xmlns:inkscape="http://www.inkscape.org/namespaces/inkscape"
   xmlns:sodipodi="http://sodipodi.sourceforge.net/DTD/sodipodi-0.dtd"
   xmlns="http://www.w3.org/2000/svg"
   xmlns:svg="http://www.w3.org/2000/svg">
  <sodipodi:namedview
     id="namedview86"
     pagecolor="#ffffff"
     bordercolor="#666666"
     borderopacity="1.0"
     inkscape:pageshadow="2"
     inkscape:pageopacity="0.0"
     inkscape:pagecheckerboard="0"
     showgrid="false"
     showguides="true"
     inkscape:guide-bbox="true"
     inkscape:snap-bbox="false"
     inkscape:snap-global="true"
     inkscape:zoom="0.5412456"
     inkscape:cx="1065.1357"
     inkscape:cy="775.98783"
     inkscape:window-width="1920"
     inkscape:window-height="1055"
     inkscape:window-x="0"
     inkscape:window-y="0"
     inkscape:window-maximized="1"
     inkscape:current-layer="svg692" />
  <metadata
     id="metadata698" />
  <defs
     id="defs696" />
  <g
     aria-label="My Health Plan
Kindly provided by those who care about your wellbeing"
     id="text25219"
     style="font-size:40.2804px;line-height:1.25;stroke-width:1.00701">
    <path
       d="m 586.16467,479.50455 -6.92823,-22.55703 h -0.16112 q 0.0403,0.80561 0.12084,2.41683 0.0806,1.61121 0.16112,3.46411 0.0806,1.81262 0.0806,3.30299 v 13.3731 h -5.43786 v -28.76021 h 8.29776 l 6.80739,21.9931 h 0.12084 l 7.21019,-21.9931 h 8.29777 v 28.76021 h -5.67954 v -13.61478 q 0,-1.36953 0.0403,-3.14187 0.0806,-1.77234 0.12084,-3.34327 0.0806,-1.61122 0.12084,-2.41683 h -0.16112 l -7.41159,22.51675 z"
       style="font-weight:bold;-inkscape-font-specification:'sans-serif Bold'"
       id="path869" />
    <path
       d="m 608.35913,457.51145 h 6.5657 l 4.14888,12.36608 q 0.32225,0.88617 0.48337,1.8529 0.16112,0.92645 0.24168,1.97374 h 0.12084 q 0.12084,-1.04729 0.32224,-1.97374 0.24169,-0.96673 0.52365,-1.8529 l 4.06832,-12.36608 h 6.44486 l -9.30477,24.81273 q -1.24869,3.42383 -3.66551,5.11561 -2.37655,1.73205 -5.51842,1.73205 -1.00701,0 -1.77234,-0.12084 -0.72504,-0.0806 -1.28897,-0.2014 v -4.75309 q 0.44309,0.0806 1.04729,0.16112 0.64449,0.0806 1.32925,0.0806 1.89318,0 2.98075,-1.16814 1.12785,-1.12785 1.6515,-2.73906 l 0.36252,-1.08757 z"
       style="font-weight:bold;-inkscape-font-specification:'sans-serif Bold'"
       id="path871" />
    <path
       d="m 668.94071,479.50455 h -6.08234 v -12.40637 h -11.39935 v 12.40637 h -6.08234 v -28.76021 h 6.08234 v 11.27851 h 11.39935 v -11.27851 h 6.08234 z"
       style="font-weight:bold;-inkscape-font-specification:'sans-serif Bold'"
       id="path873" />
    <path
       d="m 684.77089,457.10865 q 4.55168,0 7.21019,2.61822 2.6585,2.57795 2.6585,7.37131 v 2.90019 h -14.1787 q 0.0806,2.53767 1.49038,3.98776 1.45009,1.4501 3.98776,1.4501 2.13486,0 3.86692,-0.40281 1.73205,-0.44308 3.58495,-1.32925 v 4.63225 q -1.61121,0.8056 -3.42383,1.16813 -1.77234,0.4028 -4.31,0.4028 -3.303,0 -5.84066,-1.20841 -2.53767,-1.24869 -3.98776,-3.74608 -1.4501,-2.49738 -1.4501,-6.28374 0,-3.86692 1.28898,-6.40458 1.32925,-2.57795 3.66551,-3.86692 2.33627,-1.28897 5.43786,-1.28897 z m 0.0403,4.26972 q -1.73206,0 -2.90019,1.12785 -1.12785,1.12785 -1.32925,3.50439 h 8.4186 q -0.0403,-2.01402 -1.04729,-3.30299 -1.00701,-1.32925 -3.14187,-1.32925 z"
       style="font-weight:bold;-inkscape-font-specification:'sans-serif Bold'"
       id="path875" />
    <path
       d="m 708.53631,457.06836 q 4.43084,0 6.76711,1.93346 2.37654,1.89318 2.37654,5.84066 v 14.66207 h -4.18916 l -1.16813,-2.98075 h -0.16113 q -1.40981,1.77234 -2.98075,2.57794 -1.57093,0.80561 -4.31,0.80561 -2.94047,0 -4.87393,-1.69178 -1.93346,-1.73205 -1.93346,-5.27673 0,-3.50439 2.45711,-5.15589 2.4571,-1.69178 7.37131,-1.8529 l 3.82664,-0.12084 v -0.96673 q 0,-1.73206 -0.92645,-2.53766 -0.88617,-0.80561 -2.49738,-0.80561 -1.61122,0 -3.14188,0.48336 -1.53065,0.44309 -3.06131,1.12785 l -1.97374,-4.06832 q 1.77234,-0.92644 3.9072,-1.45009 2.17515,-0.52365 4.51141,-0.52365 z m 0.84589,12.32581 q -2.90019,0.0806 -4.02804,1.04729 -1.12785,0.96673 -1.12785,2.53766 0,1.36954 0.8056,1.97374 0.80561,0.56393 2.09458,0.56393 1.93346,0 3.26272,-1.12785 1.32925,-1.16814 1.32925,-3.26272 v -1.81261 z"
       style="font-weight:bold;-inkscape-font-specification:'sans-serif Bold'"
       id="path877" />
    <path
       d="m 729.84456,479.50455 h -6.00178 v -30.61311 h 6.00178 z"
       style="font-weight:bold;-inkscape-font-specification:'sans-serif Bold'"
       id="path879" />
    <path
       d="m 745.39274,475.11398 q 1.00701,0 1.93346,-0.2014 0.92645,-0.2014 1.85289,-0.48336 v 4.47112 q -0.96673,0.40281 -2.41682,0.68477 -1.40981,0.32224 -3.10159,0.32224 -1.97374,0 -3.54468,-0.64449 -1.53065,-0.64448 -2.4571,-2.21542 -0.88617,-1.61121 -0.88617,-4.43084 v -10.59375 h -2.85991 v -2.53766 l 3.303,-2.01402 1.73205,-4.63225 h 3.82664 v 4.67253 h 6.1629 v 4.5114 h -6.1629 v 10.59375 q 0,1.24869 0.72505,1.89318 0.72505,0.6042 1.89318,0.6042 z"
       style="font-weight:bold;-inkscape-font-specification:'sans-serif Bold'"
       id="path881" />
    <path
       d="m 759.61164,455.13491 q 0,1.61121 -0.12084,3.10159 -0.0806,1.49037 -0.16113,2.09458 h 0.32225 q 1.04729,-1.69178 2.69878,-2.45711 1.6515,-0.76532 3.66552,-0.76532 3.58496,0 5.71982,1.93345 2.17514,1.89318 2.17514,6.12262 v 14.33983 H 767.9094 V 466.6551 q 0,-4.75309 -3.54468,-4.75309 -2.69878,0 -3.74607,1.89318 -1.00701,1.8529 -1.00701,5.35729 v 10.35207 h -6.00178 v -30.61311 h 6.00178 z"
       style="font-weight:bold;-inkscape-font-specification:'sans-serif Bold'"
       id="path883" />
    <path
       d="m 800.2142,450.74434 q 5.55869,0 8.09636,2.41683 2.57794,2.37654 2.57794,6.5657 0,2.49739 -1.04729,4.71281 -1.04729,2.17514 -3.50439,3.50439 -2.41683,1.32926 -6.60599,1.32926 h -2.61822 v 10.23122 h -6.08234 v -28.76021 z m -0.32225,4.99477 h -2.77934 v 8.53945 h 2.01402 q 2.57794,0 4.06832,-1.00701 1.53065,-1.04729 1.53065,-3.34328 0,-4.18916 -4.83365,-4.18916 z"
       style="font-weight:bold;-inkscape-font-specification:'sans-serif Bold'"
       id="path885" />
    <path
       d="m 821.8447,479.50455 h -6.00178 v -30.61311 h 6.00178 z"
       style="font-weight:bold;-inkscape-font-specification:'sans-serif Bold'"
       id="path887" />
    <path
       d="m 837.15119,457.06836 q 4.43085,0 6.76711,1.93346 2.37654,1.89318 2.37654,5.84066 v 14.66207 h -4.18916 l -1.16813,-2.98075 h -0.16112 q -1.40982,1.77234 -2.98075,2.57794 -1.57094,0.80561 -4.31,0.80561 -2.94047,0 -4.87393,-1.69178 -1.93346,-1.73205 -1.93346,-5.27673 0,-3.50439 2.4571,-5.15589 2.45711,-1.69178 7.37132,-1.8529 l 3.82663,-0.12084 v -0.96673 q 0,-1.73206 -0.92645,-2.53766 -0.88616,-0.80561 -2.49738,-0.80561 -1.61122,0 -3.14187,0.48336 -1.53066,0.44309 -3.06131,1.12785 l -1.97374,-4.06832 q 1.77234,-0.92644 3.9072,-1.45009 2.17514,-0.52365 4.5114,-0.52365 z m 0.84589,12.32581 q -2.90019,0.0806 -4.02804,1.04729 -1.12785,0.96673 -1.12785,2.53766 0,1.36954 0.80561,1.97374 0.80561,0.56393 2.09458,0.56393 1.93346,0 3.26271,-1.12785 1.32925,-1.16814 1.32925,-3.26272 v -1.81261 z"
       style="font-weight:bold;-inkscape-font-specification:'sans-serif Bold'"
       id="path889" />
    <path
       d="m 864.94459,457.10865 q 3.54468,0 5.67954,1.93345 2.13486,1.89318 2.13486,6.12262 v 14.33983 h -6.00178 V 466.6551 q 0,-2.37654 -0.84589,-3.54468 -0.84589,-1.20841 -2.69879,-1.20841 -2.73906,0 -3.74607,1.89318 -1.00701,1.8529 -1.00701,5.35729 v 10.35207 h -6.00178 v -21.9931 h 4.59196 l 0.80561,2.81963 h 0.32224 q 1.04729,-1.69178 2.85991,-2.45711 1.8529,-0.76532 3.9072,-0.76532 z"
       style="font-weight:bold;-inkscape-font-specification:'sans-serif Bold'"
       id="path891" />
    <path
       d="m 595.30832,529.85505 h -4.26972 l -10.19094,-13.73562 -2.94047,2.57795 v 11.15767 h -3.62524 v -28.76021 h 3.62524 v 14.1787 q 1.20841,-1.36953 2.4571,-2.73907 1.2487,-1.36953 2.49739,-2.73906 l 7.77412,-8.70057 h 4.22944 l -11.39935,12.52721 z"
       id="path893" />
    <path
       d="m 600.54475,500.16839 q 0.80561,0 1.40982,0.56393 0.64448,0.52364 0.64448,1.69177 0,1.12786 -0.64448,1.69178 -0.60421,0.56393 -1.40982,0.56393 -0.88616,0 -1.49037,-0.56393 -0.60421,-0.56392 -0.60421,-1.69178 0,-1.16813 0.60421,-1.69177 0.60421,-0.56393 1.49037,-0.56393 z m 1.73206,8.09636 v 21.5903 h -3.54467 v -21.5903 z"
       id="path895" />
    <path
       d="m 619.5168,507.86195 q 3.86692,0 5.84066,1.89318 1.97374,1.8529 1.97374,6.04206 v 14.05786 h -3.5044 v -13.81618 q 0,-5.19617 -4.83365,-5.19617 -3.58495,0 -4.95448,2.01402 -1.36954,2.01402 -1.36954,5.80038 v 11.19795 h -3.54467 v -21.5903 h 2.8599 l 0.52365,2.94047 h 0.2014 q 1.04729,-1.69178 2.90019,-2.49738 1.8529,-0.84589 3.9072,-0.84589 z"
       id="path897" />
    <path
       d="m 641.67094,530.25785 q -4.02804,0 -6.44486,-2.77935 -2.41682,-2.81963 -2.41682,-8.37832 0,-5.5587 2.41682,-8.37832 2.4571,-2.85991 6.48514,-2.85991 2.49739,0 4.06832,0.92645 1.61122,0.92645 2.61823,2.2557 h 0.24168 q -0.0403,-0.52365 -0.16112,-1.53066 -0.0806,-1.04729 -0.0806,-1.65149 v -8.62001 h 3.54468 v 30.61311 h -2.85991 l -0.52365,-2.90019 h -0.16112 q -0.96673,1.36953 -2.57795,2.33626 -1.61121,0.96673 -4.14888,0.96673 z m 0.56393,-2.94047 q 3.42383,0 4.79337,-1.8529 1.40981,-1.89318 1.40981,-5.67953 v -0.64449 q 0,-4.02804 -1.32925,-6.1629 -1.32926,-2.17514 -4.91421,-2.17514 -2.85991,0 -4.31,2.29598 -1.40982,2.2557 -1.40982,6.08234 0,3.86692 1.40982,6.00178 1.45009,2.13486 4.35028,2.13486 z"
       id="path899" />
    <path
       d="m 662.33478,529.85505 h -3.54467 v -30.61311 h 3.54467 z"
       id="path901" />
    <path
       d="m 665.79887,508.26475 h 3.78636 l 4.67252,12.28552 q 0.60421,1.61122 1.08758,3.10159 0.48336,1.4501 0.72504,2.77935 h 0.16112 q 0.24169,-1.00701 0.76533,-2.61822 0.52365,-1.6515 1.08757,-3.303 l 4.39057,-12.24524 h 3.82663 l -9.30477,24.57105 q -1.12785,3.06131 -2.94047,4.87392 -1.77233,1.81262 -4.91421,1.81262 -0.96673,0 -1.69177,-0.12084 -0.72505,-0.0806 -1.24869,-0.2014 v -2.81963 q 0.44308,0.0806 1.04729,0.16112 0.64448,0.0806 1.32925,0.0806 1.8529,0 2.98075,-1.04729 1.16813,-1.04729 1.81262,-2.77934 l 1.12785,-2.85991 z"
       id="path903" />
    <path
       d="m 710.4697,507.86195 q 3.98776,0 6.40458,2.77935 2.4571,2.77934 2.4571,8.37832 0,5.51841 -2.4571,8.37832 -2.41682,2.85991 -6.44486,2.85991 -2.49739,0 -4.14889,-0.92645 -1.61121,-0.96673 -2.53766,-2.21542 h -0.24168 q 0.0806,0.68477 0.16112,1.73206 0.0806,1.04729 0.0806,1.81261 v 8.86169 h -3.54468 v -31.25759 h 2.90019 l 0.48337,2.94047 h 0.16112 q 0.96673,-1.40981 2.53766,-2.37654 1.57094,-0.96673 4.18917,-0.96673 z m -0.64449,2.98075 q -3.30299,0 -4.67253,1.8529 -1.32925,1.85289 -1.40981,5.63925 v 0.68477 q 0,3.98776 1.28897,6.1629 1.32926,2.13486 4.87393,2.13486 1.97374,0 3.22243,-1.08757 1.28898,-1.08757 1.89318,-2.94047 0.64449,-1.89318 0.64449,-4.31 0,-3.7058 -1.4501,-5.92122 -1.40981,-2.21542 -4.39056,-2.21542 z"
       id="path905" />
    <path
       d="m 735.04073,507.86195 q 0.60421,0 1.28898,0.0806 0.72504,0.0403 1.24869,0.16112 l -0.44309,3.26271 q -0.52364,-0.12084 -1.16813,-0.2014 -0.6042,-0.0806 -1.16813,-0.0806 -1.6515,0 -3.10159,0.92645 -1.4501,0.88617 -2.33626,2.53766 -0.84589,1.61122 -0.84589,3.78636 v 11.5202 h -3.54468 v -21.5903 h 2.90019 l 0.40281,3.94748 h 0.16112 q 1.04729,-1.77234 2.69878,-3.06131 1.6515,-1.28897 3.9072,-1.28897 z"
       id="path907" />
    <path
       d="m 759.57141,519.01962 q 0,5.35729 -2.73907,8.29776 -2.69879,2.94047 -7.33103,2.94047 -2.85991,0 -5.11561,-1.28897 -2.21543,-1.32926 -3.5044,-3.82664 -1.28897,-2.53767 -1.28897,-6.12262 0,-5.35729 2.69879,-8.25748 2.69878,-2.90019 7.33103,-2.90019 2.94047,0 5.15589,1.32925 2.2557,1.28897 3.50439,3.78636 1.28898,2.4571 1.28898,6.04206 z m -16.31356,0 q 0,3.82664 1.49037,6.08234 1.53066,2.21542 4.83365,2.21542 3.26271,0 4.79337,-2.21542 1.53065,-2.2557 1.53065,-6.08234 0,-3.82664 -1.53065,-6.00178 -1.53066,-2.17514 -4.83365,-2.17514 -3.30299,0 -4.79337,2.17514 -1.49037,2.17514 -1.49037,6.00178 z"
       id="path909" />
    <path
       d="m 769.11782,529.85505 -8.17692,-21.5903 h 3.78636 l 4.59197,12.72861 q 0.32224,0.88617 0.68476,1.97374 0.36253,1.08757 0.64449,2.09458 0.28196,0.96673 0.4028,1.6515 h 0.16112 q 0.16113,-0.68477 0.44309,-1.69178 0.32224,-1.00701 0.68477,-2.09458 0.4028,-1.08757 0.68476,-1.93346 l 4.59197,-12.72861 h 3.78636 l -8.21721,21.5903 z"
       id="path911" />
    <path
       d="m 786.63977,500.16839 q 0.80561,0 1.40982,0.56393 0.64448,0.52364 0.64448,1.69177 0,1.12786 -0.64448,1.69178 -0.60421,0.56393 -1.40982,0.56393 -0.88617,0 -1.49037,-0.56393 -0.60421,-0.56392 -0.60421,-1.69178 0,-1.16813 0.60421,-1.69177 0.6042,-0.56393 1.49037,-0.56393 z m 1.73206,8.09636 v 21.5903 h -3.54468 v -21.5903 z"
       id="path913" />
    <path
       d="m 802.87275,530.25785 q -4.02804,0 -6.44487,-2.77935 -2.41682,-2.81963 -2.41682,-8.37832 0,-5.5587 2.41682,-8.37832 2.45711,-2.85991 6.48515,-2.85991 2.49738,0 4.06832,0.92645 1.61122,0.92645 2.61823,2.2557 h 0.24168 q -0.0403,-0.52365 -0.16112,-1.53066 -0.0806,-1.04729 -0.0806,-1.65149 v -8.62001 h 3.54467 v 30.61311 h -2.85991 l -0.52364,-2.90019 h -0.16112 q -0.96673,1.36953 -2.57795,2.33626 -1.61122,0.96673 -4.14888,0.96673 z m 0.56392,-2.94047 q 3.42384,0 4.79337,-1.8529 1.40982,-1.89318 1.40982,-5.67953 v -0.64449 q 0,-4.02804 -1.32926,-6.1629 -1.32925,-2.17514 -4.91421,-2.17514 -2.8599,0 -4.31,2.29598 -1.40981,2.2557 -1.40981,6.08234 0,3.86692 1.40981,6.00178 1.4501,2.13486 4.35028,2.13486 z"
       id="path915" />
    <path
       d="m 828.32995,507.86195 q 2.77934,0 4.75308,1.20841 2.01402,1.20841 3.06131,3.42383 1.08757,2.17515 1.08757,5.11561 v 2.13487 h -14.7829 q 0.0806,3.66551 1.8529,5.59897 1.81261,1.89318 5.03505,1.89318 2.0543,0 3.62523,-0.36252 1.61122,-0.40281 3.30299,-1.12785 v 3.10159 q -1.65149,0.72504 -3.26271,1.04729 -1.61121,0.36252 -3.82664,0.36252 -3.06131,0 -5.43785,-1.24869 -2.33626,-1.24869 -3.66552,-3.7058 -1.28897,-2.49738 -1.28897,-6.08234 0,-3.54467 1.16813,-6.08234 1.20841,-2.53766 3.34328,-3.9072 2.17514,-1.36953 5.03505,-1.36953 z m -0.0403,2.90019 q -2.53767,0 -4.02804,1.65149 -1.4501,1.61122 -1.73206,4.51141 h 10.99655 q -0.0403,-2.73907 -1.28898,-4.43085 -1.24869,-1.73205 -3.94747,-1.73205 z"
       id="path917" />
    <path
       d="m 850.3633,530.25785 q -4.02804,0 -6.44486,-2.77935 -2.41682,-2.81963 -2.41682,-8.37832 0,-5.5587 2.41682,-8.37832 2.4571,-2.85991 6.48514,-2.85991 2.49739,0 4.06832,0.92645 1.61122,0.92645 2.61823,2.2557 h 0.24168 q -0.0403,-0.52365 -0.16112,-1.53066 -0.0806,-1.04729 -0.0806,-1.65149 v -8.62001 h 3.54468 v 30.61311 h -2.85991 l -0.52365,-2.90019 h -0.16112 q -0.96673,1.36953 -2.57795,2.33626 -1.61121,0.96673 -4.14888,0.96673 z m 0.56393,-2.94047 q 3.42383,0 4.79337,-1.8529 1.40981,-1.89318 1.40981,-5.67953 v -0.64449 q 0,-4.02804 -1.32925,-6.1629 -1.32926,-2.17514 -4.91421,-2.17514 -2.85991,0 -4.31,2.29598 -1.40982,2.2557 -1.40982,6.08234 0,3.86692 1.40982,6.00178 1.45009,2.13486 4.35028,2.13486 z"
       id="path919" />
    <path
       d="m 881.49997,506.69382 q 0,1.36953 -0.0806,2.57794 -0.0403,1.16813 -0.12084,1.8529 h 0.2014 q 0.92645,-1.36953 2.53767,-2.29598 1.61121,-0.92645 4.14888,-0.92645 4.02804,0 6.44486,2.81963 2.45711,2.77934 2.45711,8.33804 0,5.55869 -2.45711,8.37832 -2.4571,2.81963 -6.44486,2.81963 -2.53767,0 -4.14888,-0.92645 -1.61122,-0.92645 -2.53767,-2.21542 h -0.28196 l -0.72505,2.73907 h -2.53766 v -30.61311 h 3.54467 z m 6.08234,4.14888 q -3.42383,0 -4.75308,1.97374 -1.32926,1.97374 -1.32926,6.12262 v 0.16112 q 0,3.98776 1.28898,6.12262 1.32925,2.09458 4.87392,2.09458 2.90019,0 4.31001,-2.13486 1.45009,-2.13486 1.45009,-6.1629 0,-8.17692 -5.84066,-8.17692 z"
       id="path921" />
    <path
       d="m 898.53854,508.26475 h 3.78636 l 4.67252,12.28552 q 0.60421,1.61122 1.08758,3.10159 0.48336,1.4501 0.72504,2.77935 h 0.16112 q 0.24169,-1.00701 0.76533,-2.61822 0.52365,-1.6515 1.08757,-3.303 l 4.39057,-12.24524 h 3.82663 l -9.30477,24.57105 q -1.12785,3.06131 -2.94047,4.87392 -1.77233,1.81262 -4.91421,1.81262 -0.96673,0 -1.69177,-0.12084 -0.72505,-0.0806 -1.2487,-0.2014 v -2.81963 q 0.44309,0.0806 1.0473,0.16112 0.64448,0.0806 1.32925,0.0806 1.8529,0 2.98075,-1.04729 1.16813,-1.04729 1.81262,-2.77934 l 1.12785,-2.85991 z"
       id="path923" />
    <path
       d="m 940.14806,527.35766 q 0.80561,0 1.6515,-0.12084 0.84589,-0.16112 1.36953,-0.32224 v 2.69878 q -0.56392,0.28197 -1.61121,0.44309 -1.04729,0.2014 -2.01402,0.2014 -1.69178,0 -3.14187,-0.56393 -1.40982,-0.6042 -2.29599,-2.0543 -0.88617,-1.45009 -0.88617,-4.06832 v -12.56748 h -3.06131 v -1.69178 l 3.1016,-1.40981 1.40981,-4.59197 h 2.09458 v 4.95449 h 6.24346 v 2.73907 h -6.24346 v 12.48692 q 0,1.97374 0.92645,2.94047 0.96673,0.92645 2.4571,0.92645 z"
       id="path925" />
    <path
       d="m 951.02372,508.22447 q 0,1.61122 -0.20141,3.02103 h 0.24169 q 1.04729,-1.65149 2.81962,-2.49738 1.81262,-0.84589 3.9072,-0.84589 3.94748,0 5.92122,1.89318 1.97374,1.8529 1.97374,6.00178 v 14.05786 h -3.50439 v -13.81618 q 0,-5.19617 -4.83365,-5.19617 -3.62524,0 -4.99477,2.0543 -1.32925,2.01402 -1.32925,5.80038 v 11.15767 h -3.54468 v -30.61311 h 3.54468 z"
       id="path927" />
    <path
       d="m 991.14289,519.01962 q 0,5.35729 -2.73906,8.29776 -2.69879,2.94047 -7.33104,2.94047 -2.8599,0 -5.11561,-1.28897 -2.21542,-1.32926 -3.50439,-3.82664 -1.28897,-2.53767 -1.28897,-6.12262 0,-5.35729 2.69878,-8.25748 2.69879,-2.90019 7.33104,-2.90019 2.94047,0 5.15589,1.32925 2.2557,1.28897 3.50439,3.78636 1.28897,2.4571 1.28897,6.04206 z m -16.31356,0 q 0,3.82664 1.49038,6.08234 1.53065,2.21542 4.83365,2.21542 3.26271,0 4.79336,-2.21542 1.53066,-2.2557 1.53066,-6.08234 0,-3.82664 -1.53066,-6.00178 -1.53065,-2.17514 -4.83364,-2.17514 -3.303,0 -4.79337,2.17514 -1.49038,2.17514 -1.49038,6.00178 z"
       id="path929" />
    <path
       d="m 1010.7997,523.89355 q 0,3.14187 -2.3362,4.75308 -2.3363,1.61122 -6.2838,1.61122 -2.25569,0 -3.90719,-0.36252 -1.61121,-0.36253 -2.85991,-1.00701 v -3.22244 q 1.28898,0.64449 3.1016,1.20842 1.8529,0.52364 3.7461,0.52364 2.6988,0 3.9072,-0.84589 1.2084,-0.88617 1.2084,-2.33626 0,-0.80561 -0.4431,-1.45009 -0.4431,-0.64449 -1.6112,-1.28898 -1.1279,-0.64448 -3.2627,-1.45009 -2.09461,-0.80561 -3.58499,-1.61122 -1.49037,-0.80561 -2.29598,-1.93346 -0.80561,-1.12785 -0.80561,-2.90019 0,-2.73906 2.21543,-4.22944 2.2557,-1.49037 5.88095,-1.49037 1.9737,0 3.6655,0.4028 1.7321,0.36253 3.2224,1.04729 l -1.2084,2.81963 q -1.3695,-0.56393 -2.8599,-0.96673 -1.4904,-0.4028 -3.0613,-0.4028 -2.1751,0 -3.34327,0.72504 -1.12785,0.68477 -1.12785,1.89318 0,0.88617 0.52364,1.53066 0.52365,0.6042 1.73208,1.20841 1.2487,0.56393 3.303,1.36953 2.0543,0.76533 3.5044,1.57094 1.4501,0.80561 2.2154,1.97374 0.7653,1.12785 0.7653,2.85991 z"
       id="path931" />
    <path
       d="m 1024.3742,507.86195 q 2.7793,0 4.753,1.20841 2.0141,1.20841 3.0613,3.42383 1.0876,2.17515 1.0876,5.11561 v 2.13487 h -14.7829 q 0.081,3.66551 1.8529,5.59897 1.8126,1.89318 5.0351,1.89318 2.0543,0 3.6252,-0.36252 1.6112,-0.40281 3.303,-1.12785 v 3.10159 q -1.6515,0.72504 -3.2627,1.04729 -1.6112,0.36252 -3.8267,0.36252 -3.0613,0 -5.4378,-1.24869 -2.3363,-1.24869 -3.6655,-3.7058 -1.289,-2.49738 -1.289,-6.08234 0,-3.54467 1.1681,-6.08234 1.2084,-2.53766 3.3433,-3.9072 2.1751,-1.36953 5.0351,-1.36953 z m -0.04,2.90019 q -2.5377,0 -4.0281,1.65149 -1.4501,1.61122 -1.732,4.51141 h 10.9965 q -0.04,-2.73907 -1.289,-4.43085 -1.2486,-1.73205 -3.9474,-1.73205 z"
       id="path933" />
    <path
       d="m 1063.1641,517.65009 q -0.5237,-1.6515 -0.9265,-3.22244 -0.3625,-1.61121 -0.5639,-2.49738 h -0.1611 q -0.1611,0.88617 -0.5237,2.49738 -0.3625,1.57094 -0.9264,3.26272 l -3.8669,12.1244 h -4.0281 l -5.9212,-21.5903 h 3.6655 l 2.9808,11.5202 q 0.4431,1.73205 0.8459,3.50439 0.4028,1.77234 0.5639,2.94047 h 0.1611 q 0.1611,-0.68477 0.3625,-1.69178 0.2417,-1.00701 0.5237,-2.09458 0.2819,-1.12785 0.5639,-2.01402 l 3.8266,-12.16468 h 3.867 l 3.7058,12.16468 q 0.443,1.36954 0.8458,2.98075 0.4431,1.61122 0.6043,2.77935 h 0.1611 q 0.1208,-1.00701 0.5236,-2.77935 0.4431,-1.77234 0.9265,-3.62523 l 3.021,-11.5202 h 3.6252 l -6.0017,21.5903 h -4.1489 z"
       id="path935" />
    <path
       d="m 1084.4321,508.22447 q 0,1.61122 -0.2014,3.02103 h 0.2417 q 1.0473,-1.65149 2.8196,-2.49738 1.8126,-0.84589 3.9072,-0.84589 3.9475,0 5.9212,1.89318 1.9738,1.8529 1.9738,6.00178 v 14.05786 h -3.5044 v -13.81618 q 0,-5.19617 -4.8337,-5.19617 -3.6252,0 -4.9947,2.0543 -1.3293,2.01402 -1.3293,5.80038 v 11.15767 h -3.5447 v -30.61311 h 3.5447 z"
       id="path937" />
    <path
       d="m 1124.5513,519.01962 q 0,5.35729 -2.7391,8.29776 -2.6987,2.94047 -7.331,2.94047 -2.8599,0 -5.1156,-1.28897 -2.2154,-1.32926 -3.5044,-3.82664 -1.289,-2.53767 -1.289,-6.12262 0,-5.35729 2.6988,-8.25748 2.6988,-2.90019 7.3311,-2.90019 2.9404,0 5.1558,1.32925 2.2557,1.28897 3.5044,3.78636 1.289,2.4571 1.289,6.04206 z m -16.3136,0 q 0,3.82664 1.4904,6.08234 1.5307,2.21542 4.8337,2.21542 3.2627,0 4.7933,-2.21542 1.5307,-2.2557 1.5307,-6.08234 0,-3.82664 -1.5307,-6.00178 -1.5306,-2.17514 -4.8336,-2.17514 -3.303,0 -4.7934,2.17514 -1.4904,2.17514 -1.4904,6.00178 z"
       id="path939" />
    <path
       d="m 1149.2834,530.25785 q -2.8599,0 -5.1156,-1.16813 -2.2154,-1.16813 -3.5044,-3.62524 -1.2487,-2.4571 -1.2487,-6.28374 0,-3.98776 1.3293,-6.48514 1.3292,-2.49739 3.5849,-3.66552 2.296,-1.16813 5.1962,-1.16813 1.6515,0 3.1821,0.36252 1.5307,0.32225 2.4974,0.80561 l -1.0876,2.94047 q -0.9667,-0.36252 -2.2557,-0.68477 -1.2889,-0.32224 -2.4168,-0.32224 -6.3643,0 -6.3643,8.17692 0,3.9072 1.5307,6.00178 1.5709,2.0543 4.6322,2.0543 1.7724,0 3.1016,-0.36252 1.3695,-0.36253 2.4974,-0.88617 v 3.14187 q -1.0876,0.56392 -2.4168,0.84589 -1.289,0.32224 -3.1419,0.32224 z"
       id="path941" />
    <path
       d="m 1168.1346,507.90223 q 3.9474,0 5.8406,1.73206 1.8932,1.73205 1.8932,5.51841 v 14.70235 h -2.5779 l -0.6848,-3.06131 h -0.1611 q -1.4098,1.77233 -2.9808,2.61822 -1.5306,0.84589 -4.2697,0.84589 -2.9405,0 -4.8739,-1.53065 -1.9335,-1.57094 -1.9335,-4.87393 0,-3.22244 2.5377,-4.95449 2.5376,-1.77234 7.8144,-1.93346 l 3.6655,-0.12084 v -1.28898 q 0,-2.69878 -1.1681,-3.74607 -1.1682,-1.04729 -3.303,-1.04729 -1.6918,0 -3.2225,0.52364 -1.5306,0.48337 -2.8599,1.12785 l -1.0875,-2.6585 q 1.4098,-0.76533 3.3432,-1.28898 1.9335,-0.56392 4.0281,-0.56392 z m 1.0473,11.52019 q -4.0281,0.16112 -5.599,1.28898 -1.5307,1.12785 -1.5307,3.18215 0,1.81262 1.0876,2.6585 1.1279,0.84589 2.8599,0.84589 2.7391,0 4.5517,-1.49037 1.8126,-1.53066 1.8126,-4.67253 v -1.93346 z"
       id="path943" />
    <path
       d="m 1192.625,507.86195 q 0.6042,0 1.289,0.0806 0.7251,0.0403 1.2487,0.16112 l -0.4431,3.26271 q -0.5236,-0.12084 -1.1681,-0.2014 -0.6042,-0.0806 -1.1681,-0.0806 -1.6515,0 -3.1016,0.92645 -1.4501,0.88617 -2.3363,2.53766 -0.8459,1.61122 -0.8459,3.78636 v 11.5202 h -3.5447 v -21.5903 h 2.9002 l 0.4028,3.94748 h 0.1612 q 1.0472,-1.77234 2.6987,-3.06131 1.6515,-1.28897 3.9072,-1.28897 z"
       id="path945" />
    <path
       d="m 1206.7231,507.86195 q 2.7793,0 4.753,1.20841 2.0141,1.20841 3.0614,3.42383 1.0875,2.17515 1.0875,5.11561 v 2.13487 h -14.7829 q 0.081,3.66551 1.8529,5.59897 1.8126,1.89318 5.0351,1.89318 2.0543,0 3.6252,-0.36252 1.6112,-0.40281 3.303,-1.12785 v 3.10159 q -1.6515,0.72504 -3.2627,1.04729 -1.6112,0.36252 -3.8267,0.36252 -3.0613,0 -5.4378,-1.24869 -2.3363,-1.24869 -3.6655,-3.7058 -1.289,-2.49738 -1.289,-6.08234 0,-3.54467 1.1681,-6.08234 1.2084,-2.53766 3.3433,-3.9072 2.1751,-1.36953 5.0351,-1.36953 z m -0.04,2.90019 q -2.5377,0 -4.0281,1.65149 -1.4501,1.61122 -1.732,4.51141 h 10.9965 q -0.04,-2.73907 -1.2889,-4.43085 -1.2487,-1.73205 -3.9475,-1.73205 z"
       id="path947" />
    <path
       d="m 1239.7529,507.90223 q 3.9475,0 5.8407,1.73206 1.8932,1.73205 1.8932,5.51841 v 14.70235 h -2.578 l -0.6848,-3.06131 h -0.1611 q -1.4098,1.77233 -2.9807,2.61822 -1.5307,0.84589 -4.2698,0.84589 -2.9404,0 -4.8739,-1.53065 -1.9334,-1.57094 -1.9334,-4.87393 0,-3.22244 2.5376,-4.95449 2.5377,-1.77234 7.8144,-1.93346 l 3.6655,-0.12084 v -1.28898 q 0,-2.69878 -1.1681,-3.74607 -1.1681,-1.04729 -3.303,-1.04729 -1.6918,0 -3.2224,0.52364 -1.5307,0.48337 -2.8599,1.12785 l -1.0876,-2.6585 q 1.4098,-0.76533 3.3433,-1.28898 1.9334,-0.56392 4.028,-0.56392 z m 1.0473,11.52019 q -4.028,0.16112 -5.599,1.28898 -1.5306,1.12785 -1.5306,3.18215 0,1.81262 1.0875,2.6585 1.1279,0.84589 2.86,0.84589 2.739,0 4.5516,-1.49037 1.8127,-1.53066 1.8127,-4.67253 v -1.93346 z"
       id="path949" />
    <path
       d="m 1257.7179,506.69382 q 0,1.36953 -0.081,2.57794 -0.04,1.16813 -0.1208,1.8529 h 0.2014 q 0.9264,-1.36953 2.5377,-2.29598 1.6112,-0.92645 4.1488,-0.92645 4.0281,0 6.4449,2.81963 2.4571,2.77934 2.4571,8.33804 0,5.55869 -2.4571,8.37832 -2.4571,2.81963 -6.4449,2.81963 -2.5376,0 -4.1488,-0.92645 -1.6113,-0.92645 -2.5377,-2.21542 h -0.282 l -0.725,2.73907 h -2.5377 v -30.61311 h 3.5447 z m 6.0823,4.14888 q -3.4238,0 -4.753,1.97374 -1.3293,1.97374 -1.3293,6.12262 v 0.16112 q 0,3.98776 1.289,6.12262 1.3292,2.09458 4.8739,2.09458 2.9002,0 4.31,-2.13486 1.4501,-2.13486 1.4501,-6.1629 0,-8.17692 -5.8407,-8.17692 z"
       id="path951" />
    <path
       d="m 1297.7164,519.01962 q 0,5.35729 -2.7391,8.29776 -2.6988,2.94047 -7.331,2.94047 -2.86,0 -5.1157,-1.28897 -2.2154,-1.32926 -3.5044,-3.82664 -1.2889,-2.53767 -1.2889,-6.12262 0,-5.35729 2.6988,-8.25748 2.6987,-2.90019 7.331,-2.90019 2.9405,0 5.1559,1.32925 2.2557,1.28897 3.5044,3.78636 1.289,2.4571 1.289,6.04206 z m -16.3136,0 q 0,3.82664 1.4904,6.08234 1.5306,2.21542 4.8336,2.21542 3.2627,0 4.7934,-2.21542 1.5306,-2.2557 1.5306,-6.08234 0,-3.82664 -1.5306,-6.00178 -1.5307,-2.17514 -4.8337,-2.17514 -3.303,0 -4.7933,2.17514 -1.4904,2.17514 -1.4904,6.00178 z"
       id="path953" />
    <path
       d="m 1321.3609,508.26475 v 21.5903 h -2.9002 l -0.5236,-2.85991 h -0.1611 q -1.0473,1.69177 -2.9002,2.49738 -1.8529,0.76533 -3.9475,0.76533 -3.9072,0 -5.8809,-1.8529 -1.9738,-1.89318 -1.9738,-6.00178 v -14.13842 h 3.585 v 13.89674 q 0,5.15589 4.7934,5.15589 3.5849,0 4.9544,-2.01402 1.4099,-2.01402 1.4099,-5.80038 v -11.23823 z"
       id="path955" />
    <path
       d="m 1335.4187,527.35766 q 0.8056,0 1.6515,-0.12084 0.8459,-0.16112 1.3695,-0.32224 v 2.69878 q -0.5639,0.28197 -1.6112,0.44309 -1.0473,0.2014 -2.014,0.2014 -1.6918,0 -3.1419,-0.56393 -1.4098,-0.6042 -2.296,-2.0543 -0.8861,-1.45009 -0.8861,-4.06832 v -12.56748 h -3.0613 v -1.69178 l 3.1015,-1.40981 1.4099,-4.59197 h 2.0945 v 4.95449 h 6.2435 v 2.73907 h -6.2435 v 12.48692 q 0,1.97374 0.9265,2.94047 0.9667,0.92645 2.4571,0.92645 z"
       id="path957" />
    <path
       d="m 1349.8389,508.26475 h 3.7864 l 4.6725,12.28552 q 0.6042,1.61122 1.0876,3.10159 0.4833,1.4501 0.725,2.77935 h 0.1611 q 0.2417,-1.00701 0.7654,-2.61822 0.5236,-1.6515 1.0875,-3.303 l 4.3906,-12.24524 h 3.8266 l -9.3047,24.57105 q -1.1279,3.06131 -2.9405,4.87392 -1.7723,1.81262 -4.9142,1.81262 -0.9667,0 -1.6918,-0.12084 -0.725,-0.0806 -1.2487,-0.2014 v -2.81963 q 0.4431,0.0806 1.0473,0.16112 0.6445,0.0806 1.3293,0.0806 1.8529,0 2.9807,-1.04729 1.1682,-1.04729 1.8126,-2.77934 l 1.1279,-2.85991 z"
       id="path959" />
    <path
       d="m 1392.5361,519.01962 q 0,5.35729 -2.7391,8.29776 -2.6987,2.94047 -7.331,2.94047 -2.8599,0 -5.1156,-1.28897 -2.2154,-1.32926 -3.5044,-3.82664 -1.289,-2.53767 -1.289,-6.12262 0,-5.35729 2.6988,-8.25748 2.6988,-2.90019 7.3311,-2.90019 2.9404,0 5.1558,1.32925 2.2557,1.28897 3.5044,3.78636 1.289,2.4571 1.289,6.04206 z m -16.3135,0 q 0,3.82664 1.4903,6.08234 1.5307,2.21542 4.8337,2.21542 3.2627,0 4.7933,-2.21542 1.5307,-2.2557 1.5307,-6.08234 0,-3.82664 -1.5307,-6.00178 -1.5306,-2.17514 -4.8336,-2.17514 -3.303,0 -4.7934,2.17514 -1.4903,2.17514 -1.4903,6.00178 z"
       id="path961" />
    <path
       d="m 1416.1807,508.26475 v 21.5903 h -2.9002 l -0.5236,-2.85991 h -0.1612 q -1.0473,1.69177 -2.9001,2.49738 -1.8529,0.76533 -3.9475,0.76533 -3.9072,0 -5.881,-1.8529 -1.9737,-1.89318 -1.9737,-6.00178 v -14.13842 h 3.5849 v 13.89674 q 0,5.15589 4.7934,5.15589 3.585,0 4.9545,-2.01402 1.4098,-2.01402 1.4098,-5.80038 v -11.23823 z"
       id="path963" />
    <path
       d="m 1433.0984,507.86195 q 0.6042,0 1.2889,0.0806 0.7251,0.0403 1.2487,0.16112 l -0.4431,3.26271 q -0.5236,-0.12084 -1.1681,-0.2014 -0.6042,-0.0806 -1.1681,-0.0806 -1.6515,0 -3.1016,0.92645 -1.4501,0.88617 -2.3363,2.53766 -0.8459,1.61122 -0.8459,3.78636 v 11.5202 h -3.5446 v -21.5903 h 2.9002 l 0.4028,3.94748 h 0.1611 q 1.0473,-1.77234 2.6988,-3.06131 1.6515,-1.28897 3.9072,-1.28897 z"
       id="path965" />
    <path
       d="m 1464.0739,517.65009 q -0.5237,-1.6515 -0.9265,-3.22244 -0.3625,-1.61121 -0.5639,-2.49738 h -0.1611 q -0.1612,0.88617 -0.5237,2.49738 -0.3625,1.57094 -0.9264,3.26272 l -3.8669,12.1244 h -4.0281 l -5.9212,-21.5903 h 3.6655 l 2.9808,11.5202 q 0.443,1.73205 0.8459,3.50439 0.4028,1.77234 0.5639,2.94047 h 0.1611 q 0.1611,-0.68477 0.3625,-1.69178 0.2417,-1.00701 0.5237,-2.09458 0.2819,-1.12785 0.5639,-2.01402 l 3.8266,-12.16468 h 3.8669 l 3.7058,12.16468 q 0.4431,1.36954 0.8459,2.98075 0.4431,1.61122 0.6042,2.77935 h 0.1612 q 0.1208,-1.00701 0.5236,-2.77935 0.4431,-1.77234 0.9265,-3.62523 l 3.021,-11.5202 h 3.6252 l -6.0018,21.5903 h -4.1488 z"
       id="path967" />
    <path
       d="m 1490.1352,507.86195 q 2.7794,0 4.7531,1.20841 2.014,1.20841 3.0613,3.42383 1.0876,2.17515 1.0876,5.11561 v 2.13487 h -14.7829 q 0.081,3.66551 1.8529,5.59897 1.8126,1.89318 5.035,1.89318 2.0543,0 3.6253,-0.36252 1.6112,-0.40281 3.303,-1.12785 v 3.10159 q -1.6515,0.72504 -3.2627,1.04729 -1.6113,0.36252 -3.8267,0.36252 -3.0613,0 -5.4378,-1.24869 -2.3363,-1.24869 -3.6656,-3.7058 -1.2889,-2.49738 -1.2889,-6.08234 0,-3.54467 1.1681,-6.08234 1.2084,-2.53766 3.3433,-3.9072 2.1751,-1.36953 5.035,-1.36953 z m -0.04,2.90019 q -2.5376,0 -4.028,1.65149 -1.4501,1.61122 -1.732,4.51141 h 10.9965 q -0.04,-2.73907 -1.289,-4.43085 -1.2487,-1.73205 -3.9475,-1.73205 z"
       id="path969" />
    <path
       d="m 1508.06,529.85505 h -3.5447 v -30.61311 h 3.5447 z"
       id="path971" />
    <path
       d="m 1518.4523,529.85505 h -3.5446 v -30.61311 h 3.5446 z"
       id="path973" />
    <path
       d="m 1528.8446,506.69382 q 0,1.36953 -0.081,2.57794 -0.04,1.16813 -0.1208,1.8529 h 0.2014 q 0.9265,-1.36953 2.5377,-2.29598 1.6112,-0.92645 4.1489,-0.92645 4.028,0 6.4448,2.81963 2.4571,2.77934 2.4571,8.33804 0,5.55869 -2.4571,8.37832 -2.4571,2.81963 -6.4448,2.81963 -2.5377,0 -4.1489,-0.92645 -1.6112,-0.92645 -2.5377,-2.21542 h -0.282 l -0.725,2.73907 h -2.5377 v -30.61311 h 3.5447 z m 6.0823,4.14888 q -3.4238,0 -4.753,1.97374 -1.3293,1.97374 -1.3293,6.12262 v 0.16112 q 0,3.98776 1.289,6.12262 1.3292,2.09458 4.8739,2.09458 2.9002,0 4.31,-2.13486 1.4501,-2.13486 1.4501,-6.1629 0,-8.17692 -5.8407,-8.17692 z"
       id="path975" />
    <path
       d="m 1558.4104,507.86195 q 2.7794,0 4.7531,1.20841 2.014,1.20841 3.0613,3.42383 1.0876,2.17515 1.0876,5.11561 v 2.13487 h -14.7829 q 0.081,3.66551 1.8529,5.59897 1.8126,1.89318 5.035,1.89318 2.0543,0 3.6253,-0.36252 1.6112,-0.40281 3.303,-1.12785 v 3.10159 q -1.6515,0.72504 -3.2627,1.04729 -1.6113,0.36252 -3.8267,0.36252 -3.0613,0 -5.4378,-1.24869 -2.3363,-1.24869 -3.6655,-3.7058 -1.289,-2.49738 -1.289,-6.08234 0,-3.54467 1.1681,-6.08234 1.2084,-2.53766 3.3433,-3.9072 2.1751,-1.36953 5.035,-1.36953 z m -0.04,2.90019 q -2.5377,0 -4.0281,1.65149 -1.4501,1.61122 -1.732,4.51141 h 10.9965 q -0.04,-2.73907 -1.289,-4.43085 -1.2487,-1.73205 -3.9474,-1.73205 z"
       id="path977" />
    <path
       d="m 1574.6031,500.16839 q 0.8056,0 1.4098,0.56393 0.6445,0.52364 0.6445,1.69177 0,1.12786 -0.6445,1.69178 -0.6042,0.56393 -1.4098,0.56393 -0.8862,0 -1.4904,-0.56393 -0.6042,-0.56392 -0.6042,-1.69178 0,-1.16813 0.6042,-1.69177 0.6042,-0.56393 1.4904,-0.56393 z m 1.732,8.09636 v 21.5903 h -3.5446 v -21.5903 z"
       id="path979" />
    <path
       d="m 1593.5751,507.86195 q 3.867,0 5.8407,1.89318 1.9737,1.8529 1.9737,6.04206 v 14.05786 h -3.5043 v -13.81618 q 0,-5.19617 -4.8337,-5.19617 -3.585,0 -4.9545,2.01402 -1.3695,2.01402 -1.3695,5.80038 v 11.19795 h -3.5447 v -21.5903 h 2.8599 l 0.5237,2.94047 h 0.2014 q 1.0473,-1.69178 2.9002,-2.49738 1.8528,-0.84589 3.9071,-0.84589 z"
       id="path981" />
    <path
       d="m 1615.7293,507.86195 q 2.1349,0 3.8267,0.80561 1.732,0.8056 2.9404,2.4571 h 0.2014 l 0.4834,-2.85991 h 2.8196 v 21.95282 q 0,4.63225 -2.3765,6.96851 -2.3363,2.33626 -7.2908,2.33626 -4.753,0 -7.7741,-1.36953 v -3.26271 q 3.1822,1.69177 7.9755,1.69177 2.7794,0 4.3503,-1.65149 1.6112,-1.61122 1.6112,-4.43085 v -0.84589 q 0,-0.48336 0.04,-1.36953 0.04,-0.92645 0.081,-1.28897 h -0.1611 q -2.1752,3.26271 -6.6866,3.26271 -4.1891,0 -6.5657,-2.94047 -2.3363,-2.94047 -2.3363,-8.2172 0,-5.15589 2.3363,-8.17692 2.3766,-3.06131 6.5254,-3.06131 z m 0.4834,2.98075 q -2.6988,0 -4.1892,2.17514 -1.4903,2.13486 -1.4903,6.12262 0,3.98776 1.4501,6.12262 1.4903,2.09458 4.31,2.09458 3.2627,0 4.753,-1.73206 1.4904,-1.77233 1.4904,-5.67953 v -0.84589 q 0,-4.43084 -1.5306,-6.32402 -1.5307,-1.93346 -4.7934,-1.93346 z"
       id="path983" />
  </g>
  <g
     id="g695"
     transform="translate(-3.335566e-6,1.2319434e-5)">
    <path
       id="YellowCross-3"
       d="M 152,0 C 138.704,0 128,10.704 128,24 V 128 H 24 C 10.704,128 0,138.704 0,152 v 208 c 0,13.296 10.704,24 24,24 h 104 v 104 c 0,13.296 10.704,24 24,24 h 208 c 13.296,0 24,-10.704 24,-24 V 384 h 104 c 13.296,0 24,-10.704 24,-24 V 152 c 0,-13.296 -10.704,-24 -24,-24 H 384 V 24 C 384,10.704 373.296,0 360,0 Z"
       style="fill:#3737c8;fill-opacity:1;stroke:none" />
    <g
       id="g651">
      <path
         style="fill:#ffffff;stroke:none;stroke-width:1.09542"
         inkscape:connector-curvature="0"
         d="m 360.86962,85.584926 c -5.09256,-17.913654 -23.4361,-30.798998 -42.05357,-29.623881 -16.83776,0.204963 -32.55299,11.983451 -38.1382,27.751882 -3.44948,8.403439 -2.12259,17.599433 -1.79334,26.412863 -21.06777,-4.09922 -42.83466,-1.77633 -63.46344,3.34767 -4.10688,-6.09422 -8.3235,-12.43443 -14.7988,-16.301321 -11.92333,-7.665551 -28.26853,-7.870551 -40.31478,-0.341665 -8.07657,4.864546 -14.30493,12.776096 -16.962,21.835426 -2.66913,11.69644 -1.24457,24.78676 6.57188,34.32431 -3.31337,3.75767 -6.72113,7.55632 -11.22532,9.94755 -5.5029,3.00566 -8.36411,8.92277 -10.44498,14.56544 -10.36268,27.68418 -20.24684,55.53238 -30.663296,83.20235 -1.478344,3.97535 -2.957786,7.98022 -3.901643,12.13487 -1.505783,7.09024 1.245672,15.11199 7.432329,19.142 3.69641,2.76067 8.48813,2.44579 12.85512,2.59667 5.70814,18.0771 13.9625,35.47197 25.91327,50.31173 3.25851,3.47132 2.73829,8.42956 3.32765,12.78866 1.1897,9.08776 0.83411,18.28266 1.97112,27.38354 0.61571,7.31109 -0.124,15.80953 5.3789,21.56264 4.69513,5.52021 13.79897,7.09133 19.61796,2.45889 8.25326,-6.18933 6.46104,-17.8322 8.74714,-26.78111 1.3269,5.77935 1.87564,11.68332 2.51879,17.57199 1.46408,7.52867 9.02152,13.28068 16.75567,11.75001 7.87022,-1.35134 12.93522,-9.33156 13.59263,-16.87444 2.6011,0.66912 5.17475,1.37979 7.76158,2.10466 1.54749,9.16757 1.90308,18.4871 2.62964,27.73886 1.83393,7.93866 11.99028,13.85467 19.30188,8.79911 5.0222,-2.77377 6.04946,-8.75865 7.45977,-13.75955 1.34225,5.05556 2.44964,10.9989 7.47403,13.78688 7.55634,5.1649 17.86525,-1.27044 19.41164,-9.49774 1.32908,-7.67846 1.35652,-15.50779 1.62869,-23.26934 1.91625,-0.50512 3.80616,-0.9971 5.70924,-1.4891 -0.41047,7.18645 2.81951,14.57954 9.58236,17.72286 8.59677,5.20643 21.15008,-1.53066 21.90297,-11.39686 0.56127,-6.02534 1.65647,-11.96978 2.57355,-17.94044 1.14997,-0.23288 2.29995,-0.45046 3.4498,-0.66912 2.73773,8.48424 -0.30116,18.6511 5.74941,25.97532 3.5319,4.67289 9.99315,6.736 15.64696,5.47866 6.00952,-2.04998 10.62279,-7.28266 12.42983,-13.28066 2.08077,-10.61732 1.21834,-21.57686 3.27178,-32.17996 1.12254,-5.38356 -0.98566,-12.21578 3.88771,-16.096 15.79743,-16.17908 27.70715,-36.08643 34.60653,-57.5944 1.46474,-4.38643 2.17668,-8.97732 3.81922,-13.29488 3.61409,-1.85865 7.7072,-2.93777 10.80098,-5.69843 6.39291,-5.56177 8.8296,-15.08466 5.66736,-22.98288 -12.82681,-35.26861 -25.91382,-70.43991 -38.7955,-105.67989 -2.36822,-5.91656 -6.03696,-11.7101 -11.85496,-14.74365 -6.42022,-3.81223 -14.18212,-2.65079 -21.30056,-2.97879 4.0521,-4.76866 9.1035,-8.75866 12.19726,-14.29265 6.11906,-10.08421 6.83102,-22.682536 4.06574,-33.928084"
         id="FamilyBorder"
         sodipodi:nodetypes="cccccccccccccccccccccccccccccccccccccccccccccccccc" />
      <g
         id="g566">
        <g
           id="Father-6"
           transform="scale(1.3333333)"
           style="fill:#ff5555">
          <path
             id="FatherHead-7"
             d="m 248.03544,51.365604 c -6.35383,-1.987435 -13.5806,-1.405254 -19.36598,1.937251 -6.12039,3.422807 -10.54563,9.635965 -11.69266,16.501718 -1.51234,8.070164 1.73565,16.782796 8.11986,22.012326 5.21709,4.416586 12.42344,6.383923 19.20366,5.289883 7.26726,-1.0842 13.87484,-5.731533 17.3055,-12.175643 3.62349,-6.544478 3.77574,-14.835549 0.39583,-21.510489 -2.76075,-5.661111 -7.93718,-10.087676 -13.96621,-12.055046 z"
             inkscape:connector-curvature="0"
             style="fill:#ff5555;stroke:none;stroke-width:0.821563" />
          <path
             id="FatherBody-5"
             d="m 275.81415,116.48326 c -1.57111,-4.7861 -6.18122,-8.16513 -11.27707,-8.0008 -16.23865,-0.19515 -32.48776,-0.0822 -48.72633,-0.0616 -4.21773,-0.1746 -8.70297,1.61249 -10.62581,5.54613 -2.94599,6.08014 -4.77581,12.62249 -7.28718,18.87734 6.01544,3.99527 10.71882,10.21922 11.65966,17.48045 0.94001,4.53967 -0.51693,9.03817 -1.47835,13.43401 -0.093,2.97848 0.36136,5.94662 0.6404,8.91493 2.1813,0.79072 4.58978,1.36595 6.27473,3.06064 2.62579,2.38274 3.15259,6.04928 4.2169,9.24349 6.0678,18.9289 12.30071,37.80605 18.31665,56.75536 1.80892,5.17664 -0.17582,11.78007 -5.43711,14.10231 -4.54797,2.21809 -10.03644,-0.29848 -12.53794,-4.36485 -2.10886,-3.53337 -3.34932,-7.49805 -5.31331,-11.10358 1.50962,20.67541 3.26618,41.32867 4.89928,61.99341 -0.15475,4.37551 6.33671,7.94987 8.57966,3.12255 2.5015,-12.63287 3.29738,-25.81022 8.12464,-37.90846 0.83712,-1.46861 1.50896,-3.85234 3.53502,-3.88268 2.0156,1.11929 2.61509,3.59486 3.47304,5.56614 3.74187,11.33891 4.92026,23.29365 6.59468,35.05487 0.25838,2.23859 2.49112,3.7892 4.70312,3.59322 2.72893,-0.98481 4.21732,-3.9532 4.41372,-6.68543 4.53776,-46.94729 8.81705,-93.91426 13.47878,-140.85121 5.80925,13.01286 11.49429,26.07697 17.22073,39.12074 1.25067,2.70107 2.64612,5.6383 5.42658,7.07658 3.16301,1.80727 7.56638,0.85197 9.59233,-2.18775 2.33605,-3.20455 1.46779,-7.4669 0.0827,-10.8666 -9.57165,-25.65574 -18.92613,-51.39389 -28.54952,-77.02918 z"
             inkscape:connector-curvature="0"
             style="fill:#ff5555;stroke:none;stroke-width:0.821563" />
        </g>
        <g
           id="Mother-3"
           transform="scale(1.3333333)"
           style="fill:#ff80b2">
          <path
             id="MotherHead-5"
             d="m 141.70957,78 c -5.85962,-2.042063 -12.63177,-1.467409 -17.98312,1.682921 -6.11883,3.50948 -10.33976,10.169266 -10.52645,17.198526 -0.41486,6.228773 2.21941,12.519223 6.91743,16.675213 6.38841,5.95178 16.62438,7.21384 24.34041,3.11951 7.58113,-3.75575 12.28952,-12.35506 11.39762,-20.697704 C 155.20209,87.923062 149.42552,80.606475 141.70957,78 Z"
             inkscape:connector-curvature="0"
             style="fill:#ff80b2;stroke:none;stroke-width:0.821563" />
          <path
             id="MotherBody-6"
             d="m 161.93487,129.46159 c -3.14738,-1.96596 -7.01717,-1.57687 -10.56701,-1.65878 -13.08491,0.11263 -26.16981,-0.14335 -39.25472,0.12287 -4.27214,-0.0819 -7.70855,3.14347 -8.97782,7.01392 -8.647651,23.18184 -17.192414,46.39423 -25.746396,69.60679 -1.610046,3.5428 -0.485648,8.96986 3.828384,9.85054 4.199617,0.93152 7.501938,-2.67237 8.987937,-6.14391 5.438183,-12.14383 10.432865,-24.49232 15.984555,-36.58498 3.54992,42.00155 6.79009,84.03378 10.32972,126.03648 -0.0103,3.94173 6.20197,6.34842 7.57438,1.9352 1.81624,-10.30163 2.76555,-20.86811 6.20188,-30.83107 0.70172,-2.24187 2.07421,-4.16723 3.59108,-5.92858 3.15778,3.34805 4.1485,7.93511 5.20104,12.236 1.55818,7.12659 2.68299,14.33518 3.48793,21.57412 0.22702,1.92535 0.47462,4.42388 2.64176,5.1709 2.79651,1.25951 5.02547,-1.8942 5.52083,-4.28039 1.75434,-15.68572 2.82753,-31.45508 4.57142,-47.15228 -2.20838,2.46819 -4.6437,5.18156 -8.15221,5.6424 -4.68502,0.91183 -9.45251,-2.52887 -10.67025,-6.9831 -1.04225,-3.38987 -0.33016,-6.99375 0.7739,-10.26964 6.45994,-19.59875 12.68248,-39.26843 19.15279,-58.85627 1.72331,-5.5394 7.86329,-7.82277 13.23966,-7.74093 -5.54149,-4.99674 -8.96752,-12.41 -8.29675,-19.9051 0.23735,-5.35524 2.64176,-10.3213 5.88202,-14.51944 -1.31055,-3.00008 -2.37343,-6.47121 -5.30413,-8.33475 z"
             inkscape:connector-curvature="0"
             style="fill:#ff80b2;stroke:none;stroke-width:0.821563" />
        </g>
        <g
           id="Child-2"
           transform="scale(1.3333333)"
           style="fill:#ffb380">
          <path
             style="fill:#ffb380;stroke:none;stroke-width:0.821563"
             inkscape:connector-curvature="0"
             d="m 190.23095,136.51869 c -9.99611,-2.69889 -21.11637,5.09455 -21.66334,15.45556 -1.22539,9.38044 6.5527,18.60918 15.98167,19.11462 9.3074,1.10183 18.56413,-6.53997 19.04013,-15.91032 1.0229,-8.44047 -5.1145,-16.81005 -13.35846,-18.65986 z"
             id="ChildHead-9" />
          <path
             style="fill:#ffb380;stroke:none;stroke-width:0.821563"
             inkscape:connector-curvature="0"
             d="m 211.63278,182.11254 c -0.75951,-3.07988 -4.44319,-3.15174 -7.02387,-3.22361 -11.7688,-0.0616 -23.54823,-0.0205 -35.31711,-0.0205 -3.04888,-0.10266 -6.99275,0.54411 -7.72106,4.0757 -6.44117,19.57764 -12.75705,39.20673 -19.18818,58.79474 -0.79103,2.47417 -1.72775,6.14948 1.02974,7.7921 2.17553,1.39621 4.52722,-0.86231 5.26557,-2.80267 5.04687,-10.99526 9.50067,-22.25726 14.745,-33.16002 2.93446,34.3509 5.53597,68.7228 8.36631,103.08231 -0.0104,2.13609 1.60247,4.16887 3.79817,4.46652 1.64404,-0.48297 2.81989,-1.75561 2.78869,-3.49072 1.56082,-12.50414 2.64299,-25.07961 4.16233,-37.58374 0.28094,-2.12544 1.48798,-5.421 4.29757,-4.42553 2.81997,2.03277 2.35169,5.94416 2.9864,8.96339 1.69615,10.96336 2.39342,22.03086 3.63166,33.03522 -0.21854,2.33043 2.6951,4.55836 4.63053,2.76257 2.01873,-1.29396 2.00827,-3.79905 2.21636,-5.88266 3.10098,-33.90934 6.22271,-67.8085 9.42765,-101.70767 5.07798,10.88226 9.67739,21.9801 14.55772,32.95478 0.82204,1.89927 2.0083,3.99363 4.31838,4.31187 3.57958,-0.48257 3.83973,-4.80469 2.72631,-7.45336 -6.57644,-20.16294 -13.13206,-40.32584 -19.69817,-60.48872 z"
             id="ChildBody-1" />
        </g>
      </g>
    </g>
  </g>
  <text
     xml:space="preserve"
     style="font-style:normal;font-variant:normal;font-weight:bold;font-stretch:normal;font-size:477.965px;line-height:1.25;font-family:sans-serif;-inkscape-font-specification:'sans-serif Bold';fill:#000000;fill-opacity:1;stroke:none;stroke-width:11.9492"
     x="530.98315"
     y="426.63351"
     id="text1441"><tspan
       sodipodi:role="line"
       x="530.98315"
       y="426.63351"
       style="stroke-width:11.9492"
       id="tspan9745">MHP</tspan></text>
</svg>
