<?xml version="1.0" encoding="UTF-8" standalone="no"?>
<!-- Created using Krita: http://krita.org -->

<svg
   width="512"
   height="512"
   viewBox="0 0 512 512"
   version="1.1"
   id="svg13"
   sodipodi:docname="MyHealthPlan-icon.svg"
   inkscape:version="1.1 (1:1.1+202105261517+ce6663b3b7)"
   xmlns:inkscape="http://www.inkscape.org/namespaces/inkscape"
   xmlns:sodipodi="http://sodipodi.sourceforge.net/DTD/sodipodi-0.dtd"
   xmlns="http://www.w3.org/2000/svg"
   xmlns:svg="http://www.w3.org/2000/svg"
   xmlns:rdf="http://www.w3.org/1999/02/22-rdf-syntax-ns#"
   xmlns:cc="http://creativecommons.org/ns#"
   xmlns:dc="http://purl.org/dc/elements/1.1/">
  <metadata
     id="metadata17">
    <rdf:RDF>
      <cc:Work
         rdf:about="">
        <dc:format>image/svg+xml</dc:format>
        <dc:type
           rdf:resource="http://purl.org/dc/dcmitype/StillImage" />
        <dc:title />
      </cc:Work>
    </rdf:RDF>
  </metadata>
  <sodipodi:namedview
     pagecolor="#ffffff"
     bordercolor="#666666"
     borderopacity="1"
     objecttolerance="10"
     gridtolerance="10"
     guidetolerance="10000"
     inkscape:pageopacity="0"
     inkscape:pageshadow="2"
     inkscape:window-width="1362"
     inkscape:window-height="859"
     id="namedview15"
     showgrid="false"
     showguides="true"
     inkscape:guide-bbox="true"
     inkscape:zoom="0.70710678"
     inkscape:cx="327.39044"
     inkscape:cy="343.6539"
     inkscape:window-x="106"
     inkscape:window-y="196"
     inkscape:window-maximized="0"
     inkscape:current-layer="svg13"
     units="px"
     inkscape:pagecheckerboard="0">
    <sodipodi:guide
       position="512,0"
       orientation="1,0"
       id="guide834"
       inkscape:locked="false"
       inkscape:label=""
       inkscape:color="rgb(0,0,255)" />
    <sodipodi:guide
       position="0,512"
       orientation="0,1"
       id="guide836"
       inkscape:locked="false"
       inkscape:label=""
       inkscape:color="rgb(0,0,255)" />
    <sodipodi:guide
       position="0,384"
       orientation="512,0"
       id="guide838"
       inkscape:locked="false" />
    <sodipodi:guide
       position="0,384"
       orientation="1,0"
       id="guide840"
       inkscape:locked="false" />
    <sodipodi:guide
       position="0,0"
       orientation="1,0"
       id="guide842"
       inkscape:locked="false"
       inkscape:label=""
       inkscape:color="rgb(0,0,255)" />
    <sodipodi:guide
       position="152,0"
       orientation="1,0"
       id="guide844"
       inkscape:locked="false"
       inkscape:label=""
       inkscape:color="rgb(0,0,255)" />
    <sodipodi:guide
       position="0,128"
       orientation="0,1"
       id="guide852"
       inkscape:locked="false"
       inkscape:label=""
       inkscape:color="rgb(0,0,255)" />
    <sodipodi:guide
       position="0,24"
       orientation="0,1"
       id="guide856"
       inkscape:locked="false"
       inkscape:label=""
       inkscape:color="rgb(0,0,255)" />
    <sodipodi:guide
       position="24,0"
       orientation="1,0"
       id="guide858"
       inkscape:locked="false"
       inkscape:label=""
       inkscape:color="rgb(0,0,255)" />
    <sodipodi:guide
       position="0,256"
       orientation="0,1"
       id="guide862"
       inkscape:locked="false"
       inkscape:label=""
       inkscape:color="rgb(0,0,255)" />
    <sodipodi:guide
       position="256,0"
       orientation="1,0"
       id="guide864"
       inkscape:locked="false"
       inkscape:label=""
       inkscape:color="rgb(0,0,255)" />
    <sodipodi:guide
       position="488,0"
       orientation="1,0"
       id="guide866"
       inkscape:locked="false"
       inkscape:label=""
       inkscape:color="rgb(0,0,255)" />
    <sodipodi:guide
       position="0,384"
       orientation="0,1"
       id="guide868"
       inkscape:locked="false"
       inkscape:label=""
       inkscape:color="rgb(0,0,255)" />
    <sodipodi:guide
       position="0,488"
       orientation="0,1"
       id="guide855"
       inkscape:locked="false"
       inkscape:label=""
       inkscape:color="rgb(0,0,255)" />
    <sodipodi:guide
       position="0,152"
       orientation="0,1"
       id="guide859"
       inkscape:locked="false"
       inkscape:label=""
       inkscape:color="rgb(0,0,255)" />
    <sodipodi:guide
       position="128,0"
       orientation="1,0"
       id="guide861"
       inkscape:locked="false"
       inkscape:label=""
       inkscape:color="rgb(0,0,255)" />
    <sodipodi:guide
       position="384,0"
       orientation="1,0"
       id="guide863"
       inkscape:locked="false"
       inkscape:label=""
       inkscape:color="rgb(0,0,255)" />
    <sodipodi:guide
       position="360,0"
       orientation="1,0"
       id="guide886"
       inkscape:locked="false"
       inkscape:label=""
       inkscape:color="rgb(0,0,255)" />
    <sodipodi:guide
       position="0,360"
       orientation="0,1"
       id="guide890"
       inkscape:locked="false"
       inkscape:label=""
       inkscape:color="rgb(0,0,255)" />
  </sodipodi:namedview>
  <defs
     id="defs2" />
  <path
     style="fill:#3bc301;fill-opacity:1;stroke:none;stroke-width:7.49329901"
     id="GreenCircle"
     sodipodi:type="arc"
     sodipodi:cx="256"
     sodipodi:cy="256"
     sodipodi:rx="148"
     sodipodi:ry="148"
     sodipodi:start="0"
     sodipodi:end="6.2810386"
     d="M 404,256 A 148,148 0 0 1 256.07943,403.99998 148,148 0 0 1 108.00009,256.15886 148,148 0 0 1 255.76172,108.00019 148,148 0 0 1 403.99966,255.68229 L 256,256 Z" />
  <g
     id="g695">
    <path
       id="YellowCross"
       d="M 152,0 C 138.704,0 128,10.704 128,24 V 128 H 24 C 10.704,128 0,138.704 0,152 v 208 c 0,13.296 10.704,24 24,24 h 104 v 104 c 0,13.296 10.704,24 24,24 h 208 c 13.296,0 24,-10.704 24,-24 V 384 h 104 c 13.296,0 24,-10.704 24,-24 V 152 c 0,-13.296 -10.704,-24 -24,-24 H 384 V 24 C 384,10.704 373.296,0 360,0 Z"
       style="fill:#3737c8;fill-opacity:1;stroke:none" />
    <g
       id="g651">
      <path
         style="fill:#ffffff;stroke:none;stroke-width:1.09542"
         inkscape:connector-curvature="0"
         d="m 360.86962,85.584926 c -5.09256,-17.913654 -23.4361,-30.798998 -42.05357,-29.623881 -16.83776,0.204963 -32.55299,11.983451 -38.1382,27.751882 -3.44948,8.403439 -2.12259,17.599433 -1.79334,26.412863 -21.06777,-4.09922 -42.83466,-1.77633 -63.46344,3.34767 -4.10688,-6.09422 -8.3235,-12.43443 -14.7988,-16.301321 -11.92333,-7.665551 -28.26853,-7.870551 -40.31478,-0.341665 -8.07657,4.864546 -14.30493,12.776096 -16.962,21.835426 -2.66913,11.69644 -1.24457,24.78676 6.57188,34.32431 -3.31337,3.75767 -6.72113,7.55632 -11.22532,9.94755 -5.5029,3.00566 -8.36411,8.92277 -10.44498,14.56544 -10.36268,27.68418 -20.24684,55.53238 -30.663296,83.20235 -1.478344,3.97535 -2.957786,7.98022 -3.901643,12.13487 -1.505783,7.09024 1.245672,15.11199 7.432329,19.142 3.69641,2.76067 8.48813,2.44579 12.85512,2.59667 5.70814,18.0771 13.9625,35.47197 25.91327,50.31173 3.25851,3.47132 2.73829,8.42956 3.32765,12.78866 1.1897,9.08776 0.83411,18.28266 1.97112,27.38354 0.61571,7.31109 -0.124,15.80953 5.3789,21.56264 4.69513,5.52021 13.79897,7.09133 19.61796,2.45889 8.25326,-6.18933 6.46104,-17.8322 8.74714,-26.78111 1.3269,5.77935 1.87564,11.68332 2.51879,17.57199 1.46408,7.52867 9.02152,13.28068 16.75567,11.75001 7.87022,-1.35134 12.93522,-9.33156 13.59263,-16.87444 2.6011,0.66912 5.17475,1.37979 7.76158,2.10466 1.54749,9.16757 1.90308,18.4871 2.62964,27.73886 1.83393,7.93866 11.99028,13.85467 19.30188,8.79911 5.0222,-2.77377 6.04946,-8.75865 7.45977,-13.75955 1.34225,5.05556 2.44964,10.9989 7.47403,13.78688 7.55634,5.1649 17.86525,-1.27044 19.41164,-9.49774 1.32908,-7.67846 1.35652,-15.50779 1.62869,-23.26934 1.91625,-0.50512 3.80616,-0.9971 5.70924,-1.4891 -0.41047,7.18645 2.81951,14.57954 9.58236,17.72286 8.59677,5.20643 21.15008,-1.53066 21.90297,-11.39686 0.56127,-6.02534 1.65647,-11.96978 2.57355,-17.94044 1.14997,-0.23288 2.29995,-0.45046 3.4498,-0.66912 2.73773,8.48424 -0.30116,18.6511 5.74941,25.97532 3.5319,4.67289 9.99315,6.736 15.64696,5.47866 6.00952,-2.04998 10.62279,-7.28266 12.42983,-13.28066 2.08077,-10.61732 1.21834,-21.57686 3.27178,-32.17996 1.12254,-5.38356 -0.98566,-12.21578 3.88771,-16.096 15.79743,-16.17908 27.70715,-36.08643 34.60653,-57.5944 1.46474,-4.38643 2.17668,-8.97732 3.81922,-13.29488 3.61409,-1.85865 7.7072,-2.93777 10.80098,-5.69843 6.39291,-5.56177 8.8296,-15.08466 5.66736,-22.98288 -12.82681,-35.26861 -25.91382,-70.43991 -38.7955,-105.67989 -2.36822,-5.91656 -6.03696,-11.7101 -11.85496,-14.74365 -6.42022,-3.81223 -14.18212,-2.65079 -21.30056,-2.97879 4.0521,-4.76866 9.1035,-8.75866 12.19726,-14.29265 6.11906,-10.08421 6.83102,-22.682536 4.06574,-33.928084"
         id="FamilyBorder"
         sodipodi:nodetypes="cccccccccccccccccccccccccccccccccccccccccccccccccc" />
      <g
         id="g566">
        <g
           id="Father"
           transform="scale(1.3333333)"
           style="fill:#ff5555">
          <path
             id="FatherHead"
             d="m 248.03544,51.365604 c -6.35383,-1.987435 -13.5806,-1.405254 -19.36598,1.937251 -6.12039,3.422807 -10.54563,9.635965 -11.69266,16.501718 -1.51234,8.070164 1.73565,16.782796 8.11986,22.012326 5.21709,4.416586 12.42344,6.383923 19.20366,5.289883 7.26726,-1.0842 13.87484,-5.731533 17.3055,-12.175643 3.62349,-6.544478 3.77574,-14.835549 0.39583,-21.510489 -2.76075,-5.661111 -7.93718,-10.087676 -13.96621,-12.055046 z"
             inkscape:connector-curvature="0"
             style="fill:#ff5555;stroke:none;stroke-width:0.821563" />
          <path
             id="FatherBody"
             d="m 275.81415,116.48326 c -1.57111,-4.7861 -6.18122,-8.16513 -11.27707,-8.0008 -16.23865,-0.19515 -32.48776,-0.0822 -48.72633,-0.0616 -4.21773,-0.1746 -8.70297,1.61249 -10.62581,5.54613 -2.94599,6.08014 -4.77581,12.62249 -7.28718,18.87734 6.01544,3.99527 10.71882,10.21922 11.65966,17.48045 0.94001,4.53967 -0.51693,9.03817 -1.47835,13.43401 -0.093,2.97848 0.36136,5.94662 0.6404,8.91493 2.1813,0.79072 4.58978,1.36595 6.27473,3.06064 2.62579,2.38274 3.15259,6.04928 4.2169,9.24349 6.0678,18.9289 12.30071,37.80605 18.31665,56.75536 1.80892,5.17664 -0.17582,11.78007 -5.43711,14.10231 -4.54797,2.21809 -10.03644,-0.29848 -12.53794,-4.36485 -2.10886,-3.53337 -3.34932,-7.49805 -5.31331,-11.10358 1.50962,20.67541 3.26618,41.32867 4.89928,61.99341 -0.15475,4.37551 6.33671,7.94987 8.57966,3.12255 2.5015,-12.63287 3.29738,-25.81022 8.12464,-37.90846 0.83712,-1.46861 1.50896,-3.85234 3.53502,-3.88268 2.0156,1.11929 2.61509,3.59486 3.47304,5.56614 3.74187,11.33891 4.92026,23.29365 6.59468,35.05487 0.25838,2.23859 2.49112,3.7892 4.70312,3.59322 2.72893,-0.98481 4.21732,-3.9532 4.41372,-6.68543 4.53776,-46.94729 8.81705,-93.91426 13.47878,-140.85121 5.80925,13.01286 11.49429,26.07697 17.22073,39.12074 1.25067,2.70107 2.64612,5.6383 5.42658,7.07658 3.16301,1.80727 7.56638,0.85197 9.59233,-2.18775 2.33605,-3.20455 1.46779,-7.4669 0.0827,-10.8666 -9.57165,-25.65574 -18.92613,-51.39389 -28.54952,-77.02918 z"
             inkscape:connector-curvature="0"
             style="fill:#ff5555;stroke:none;stroke-width:0.821563" />
        </g>
        <g
           id="Mother"
           transform="scale(1.3333333)"
           style="fill:#ff80b2">
          <path
             id="MotherHead"
             d="m 141.70957,78 c -5.85962,-2.042063 -12.63177,-1.467409 -17.98312,1.682921 -6.11883,3.50948 -10.33976,10.169266 -10.52645,17.198526 -0.41486,6.228773 2.21941,12.519223 6.91743,16.675213 6.38841,5.95178 16.62438,7.21384 24.34041,3.11951 7.58113,-3.75575 12.28952,-12.35506 11.39762,-20.697704 C 155.20209,87.923062 149.42552,80.606475 141.70957,78 Z"
             inkscape:connector-curvature="0"
             style="fill:#ff80b2;stroke:none;stroke-width:0.821563" />
          <path
             id="MotherBody"
             d="m 161.93487,129.46159 c -3.14738,-1.96596 -7.01717,-1.57687 -10.56701,-1.65878 -13.08491,0.11263 -26.16981,-0.14335 -39.25472,0.12287 -4.27214,-0.0819 -7.70855,3.14347 -8.97782,7.01392 -8.647651,23.18184 -17.192414,46.39423 -25.746396,69.60679 -1.610046,3.5428 -0.485648,8.96986 3.828384,9.85054 4.199617,0.93152 7.501938,-2.67237 8.987937,-6.14391 5.438183,-12.14383 10.432865,-24.49232 15.984555,-36.58498 3.54992,42.00155 6.79009,84.03378 10.32972,126.03648 -0.0103,3.94173 6.20197,6.34842 7.57438,1.9352 1.81624,-10.30163 2.76555,-20.86811 6.20188,-30.83107 0.70172,-2.24187 2.07421,-4.16723 3.59108,-5.92858 3.15778,3.34805 4.1485,7.93511 5.20104,12.236 1.55818,7.12659 2.68299,14.33518 3.48793,21.57412 0.22702,1.92535 0.47462,4.42388 2.64176,5.1709 2.79651,1.25951 5.02547,-1.8942 5.52083,-4.28039 1.75434,-15.68572 2.82753,-31.45508 4.57142,-47.15228 -2.20838,2.46819 -4.6437,5.18156 -8.15221,5.6424 -4.68502,0.91183 -9.45251,-2.52887 -10.67025,-6.9831 -1.04225,-3.38987 -0.33016,-6.99375 0.7739,-10.26964 6.45994,-19.59875 12.68248,-39.26843 19.15279,-58.85627 1.72331,-5.5394 7.86329,-7.82277 13.23966,-7.74093 -5.54149,-4.99674 -8.96752,-12.41 -8.29675,-19.9051 0.23735,-5.35524 2.64176,-10.3213 5.88202,-14.51944 -1.31055,-3.00008 -2.37343,-6.47121 -5.30413,-8.33475 z"
             inkscape:connector-curvature="0"
             style="fill:#ff80b2;stroke:none;stroke-width:0.821563" />
        </g>
        <g
           id="Child"
           transform="scale(1.3333333)"
           style="fill:#ffb380">
          <path
             style="fill:#ffb380;stroke:none;stroke-width:0.821563"
             inkscape:connector-curvature="0"
             d="m 190.23095,136.51869 c -9.99611,-2.69889 -21.11637,5.09455 -21.66334,15.45556 -1.22539,9.38044 6.5527,18.60918 15.98167,19.11462 9.3074,1.10183 18.56413,-6.53997 19.04013,-15.91032 1.0229,-8.44047 -5.1145,-16.81005 -13.35846,-18.65986 z"
             id="ChildHead" />
          <path
             style="fill:#ffb380;stroke:none;stroke-width:0.821563"
             inkscape:connector-curvature="0"
             d="m 211.63278,182.11254 c -0.75951,-3.07988 -4.44319,-3.15174 -7.02387,-3.22361 -11.7688,-0.0616 -23.54823,-0.0205 -35.31711,-0.0205 -3.04888,-0.10266 -6.99275,0.54411 -7.72106,4.0757 -6.44117,19.57764 -12.75705,39.20673 -19.18818,58.79474 -0.79103,2.47417 -1.72775,6.14948 1.02974,7.7921 2.17553,1.39621 4.52722,-0.86231 5.26557,-2.80267 5.04687,-10.99526 9.50067,-22.25726 14.745,-33.16002 2.93446,34.3509 5.53597,68.7228 8.36631,103.08231 -0.0104,2.13609 1.60247,4.16887 3.79817,4.46652 1.64404,-0.48297 2.81989,-1.75561 2.78869,-3.49072 1.56082,-12.50414 2.64299,-25.07961 4.16233,-37.58374 0.28094,-2.12544 1.48798,-5.421 4.29757,-4.42553 2.81997,2.03277 2.35169,5.94416 2.9864,8.96339 1.69615,10.96336 2.39342,22.03086 3.63166,33.03522 -0.21854,2.33043 2.6951,4.55836 4.63053,2.76257 2.01873,-1.29396 2.00827,-3.79905 2.21636,-5.88266 3.10098,-33.90934 6.22271,-67.8085 9.42765,-101.70767 5.07798,10.88226 9.67739,21.9801 14.55772,32.95478 0.82204,1.89927 2.0083,3.99363 4.31838,4.31187 3.57958,-0.48257 3.83973,-4.80469 2.72631,-7.45336 -6.57644,-20.16294 -13.13206,-40.32584 -19.69817,-60.48872 z"
             id="ChildBody" />
        </g>
      </g>
    </g>
  </g>
</svg>
