<?xml version="1.0" encoding="UTF-8" standalone="no"?>
<!-- Converted with SVG Converter - Version 0.9.6 (Compiled Tue Jul 17 14:31:28 2018) - Copyright (C) 2011 Nokia -->

<svg
   version="1.1"
   id="svg178"
   width="1924"
   height="588.80646"
   viewBox="0 0 1924 588.80646"
   sodipodi:docname="who-horiz.svg"
   inkscape:version="1.1 (1:1.1+202105261517+ce6663b3b7)"
   xmlns:inkscape="http://www.inkscape.org/namespaces/inkscape"
   xmlns:sodipodi="http://sodipodi.sourceforge.net/DTD/sodipodi-0.dtd"
   xmlns="http://www.w3.org/2000/svg"
   xmlns:svg="http://www.w3.org/2000/svg">
  <sodipodi:namedview
     id="namedview149"
     pagecolor="#ffffff"
     bordercolor="#666666"
     borderopacity="1.0"
     inkscape:pageshadow="2"
     inkscape:pageopacity="0.0"
     inkscape:pagecheckerboard="0"
     showgrid="false"
     width="1924px"
     inkscape:zoom="0.28686523"
     inkscape:cx="686.73362"
     inkscape:cy="1063.217"
     inkscape:window-width="1920"
     inkscape:window-height="1055"
     inkscape:window-x="0"
     inkscape:window-y="0"
     inkscape:window-maximized="1"
     inkscape:current-layer="svg178" />
  <metadata
     id="metadata182" />
  <defs
     id="defs75">
    <linearGradient
       y2="93.283035"
       id="gradient0"
       x1="45.831982"
       gradientUnits="userSpaceOnUse"
       gradientTransform="scale(1.9290373,0.5183933)"
       y1="93.283035"
       x2="57.835068">
      <stop
         id="stop2"
         offset="0.00000000000"
         stop-color="#c0a062"
         stop-opacity="1.00000000000" />
      <stop
         id="stop4"
         offset="0.50196099281"
         stop-color="#ceb27c"
         stop-opacity="1.00000000000" />
      <stop
         id="stop6"
         offset="1.00000000000"
         stop-color="#ceb27c"
         stop-opacity="1.00000000000" />
    </linearGradient>
    <radialGradient
       fy="69.425964"
       fx="106.74037"
       r="28.566061"
       id="gradient1"
       gradientUnits="userSpaceOnUse"
       cy="69.425964"
       cx="106.74037"
       gradientTransform="scale(0.93685267,1.0674037)">
      <stop
         id="stop9"
         offset="0.00000000000"
         stop-color="#ffffff"
         stop-opacity="1.00000000000" />
      <stop
         id="stop11"
         offset="1.00000000000"
         stop-color="#e8e8e7"
         stop-opacity="1.00000000000" />
    </radialGradient>
    <linearGradient
       y2="120.17793"
       id="gradient2"
       x1="31.932907"
       gradientUnits="userSpaceOnUse"
       gradientTransform="scale(2.7681131,0.36125692)"
       y1="120.17793"
       x2="40.320248">
      <stop
         id="stop14"
         offset="0.00000000000"
         stop-color="#c0a062"
         stop-opacity="1.00000000000" />
      <stop
         id="stop16"
         offset="0.50196099281"
         stop-color="#dcc89c"
         stop-opacity="1.00000000000" />
      <stop
         id="stop18"
         offset="1.00000000000"
         stop-color="#dcc89c"
         stop-opacity="1.00000000000" />
    </linearGradient>
    <radialGradient
       fy="85.753311"
       fx="77.634071"
       r="12.667127"
       id="gradient3"
       gradientUnits="userSpaceOnUse"
       cy="85.753311"
       cx="77.634071"
       gradientTransform="scale(1.2346226,0.80996409)">
      <stop
         id="stop21"
         offset="0.00000000000"
         stop-color="#fffcc8"
         stop-opacity="1.00000000000" />
      <stop
         id="stop23"
         offset="0.40000000596"
         stop-color="#7fcfd6"
         stop-opacity="1.00000000000" />
      <stop
         id="stop25"
         offset="1.00000000000"
         stop-color="#00a3e4"
         stop-opacity="1.00000000000" />
    </radialGradient>
    <linearGradient
       y2="94.258461"
       id="gradient4"
       x1="91.05162"
       gradientUnits="userSpaceOnUse"
       gradientTransform="scale(1.2003411,0.83309654)"
       y1="94.258461"
       x2="73.861839">
      <stop
         id="stop28"
         offset="0.00000000000"
         stop-color="#f5c491"
         stop-opacity="1.00000000000" />
      <stop
         id="stop30"
         offset="1.00000000000"
         stop-color="#f5c491"
         stop-opacity="1.00000000000" />
    </linearGradient>
    <linearGradient
       y2="70.383553"
       id="gradient5"
       x1="98.97979"
       gradientUnits="userSpaceOnUse"
       gradientTransform="scale(0.89560405,1.1165648)"
       y1="70.383553"
       x2="114.35944">
      <stop
         id="stop33"
         offset="0.00000000000"
         stop-color="#42929d"
         stop-opacity="1.00000000000" />
      <stop
         id="stop35"
         offset="1.00000000000"
         stop-color="#42929d"
         stop-opacity="1.00000000000" />
    </linearGradient>
    <linearGradient
       y2="85.008438"
       id="gradient6"
       x1="100.05309"
       gradientUnits="userSpaceOnUse"
       gradientTransform="scale(1.1126818,0.89872954)"
       y1="85.008438"
       x2="88.367966">
      <stop
         id="stop38"
         offset="0.00000000000"
         stop-color="#bb825b"
         stop-opacity="1.00000000000" />
      <stop
         id="stop40"
         offset="1.00000000000"
         stop-color="#bb825b"
         stop-opacity="1.00000000000" />
    </linearGradient>
    <linearGradient
       y2="62.676949"
       id="gradient7"
       x1="94.58593"
       gradientUnits="userSpaceOnUse"
       gradientTransform="scale(1.0015972,0.99840536)"
       y1="62.676949"
       x2="95.055878">
      <stop
         id="stop43"
         offset="0.00000000000"
         stop-color="#c2c1c1"
         stop-opacity="1.00000000000" />
      <stop
         id="stop45"
         offset="1.00000000000"
         stop-color="#c2c1c1"
         stop-opacity="1.00000000000" />
    </linearGradient>
    <linearGradient
       y2="43.385944"
       id="gradient8"
       x1="144.99556"
       gradientUnits="userSpaceOnUse"
       gradientTransform="scale(0.65044547,1.5374079)"
       y1="43.385944"
       x2="147.09351">
      <stop
         id="stop48"
         offset="0.00000000000"
         stop-color="#c2c1c1"
         stop-opacity="1.00000000000" />
      <stop
         id="stop50"
         offset="1.00000000000"
         stop-color="#c2c1c1"
         stop-opacity="1.00000000000" />
    </linearGradient>
    <linearGradient
       y2="112.42412"
       id="gradient9"
       x1="54.240475"
       gradientUnits="userSpaceOnUse"
       gradientTransform="scale(1.7357518,0.57611923)"
       y1="112.42412"
       x2="55.200687">
      <stop
         id="stop53"
         offset="0.00000000000"
         stop-color="#c2c1c1"
         stop-opacity="1.00000000000" />
      <stop
         id="stop55"
         offset="1.00000000000"
         stop-color="#c2c1c1"
         stop-opacity="1.00000000000" />
    </linearGradient>
    <linearGradient
       y2="55.967159"
       id="gradient10"
       x1="114.58436"
       gradientUnits="userSpaceOnUse"
       gradientTransform="scale(0.8149367,1.2270892)"
       y1="55.967159"
       x2="118.54454">
      <stop
         id="stop58"
         offset="0.00000000000"
         stop-color="#c2c1c1"
         stop-opacity="1.00000000000" />
      <stop
         id="stop60"
         offset="1.00000000000"
         stop-color="#c2c1c1"
         stop-opacity="1.00000000000" />
    </linearGradient>
    <linearGradient
       y2="96.78273"
       id="gradient11"
       x1="61.523567"
       gradientUnits="userSpaceOnUse"
       gradientTransform="scale(1.5312149,0.65307619)"
       y1="96.78273"
       x2="62.536617">
      <stop
         id="stop63"
         offset="0.00000000000"
         stop-color="#c2c1c1"
         stop-opacity="1.00000000000" />
      <stop
         id="stop65"
         offset="1.00000000000"
         stop-color="#c2c1c1"
         stop-opacity="1.00000000000" />
    </linearGradient>
    <linearGradient
       y2="168.75475"
       id="gradient12"
       x1="23.684502"
       gradientUnits="userSpaceOnUse"
       gradientTransform="scale(3.752644,0.26647878)"
       y1="168.75475"
       x2="29.60606">
      <stop
         id="stop68"
         offset="0.00000000000"
         stop-color="#968247"
         stop-opacity="1.00000000000" />
      <stop
         id="stop70"
         offset="0.50196099281"
         stop-color="#a69464"
         stop-opacity="1.00000000000" />
      <stop
         id="stop72"
         offset="1.00000000000"
         stop-color="#a69464"
         stop-opacity="1.00000000000" />
    </linearGradient>
  </defs>
  <g
     id="Layer_2_1_"
     style="fill:#009cde;fill-opacity:1"
     transform="scale(3.2704053)">
    <g
       id="Layer_1-2"
       style="fill:#009cde;fill-opacity:1">
      <path
         class="st0"
         d="m 250,42.7 h -0.1 l -8,41.8 h -11 l -10.4,-51 h 8.8 l 7.2,39.3 h 0.1 l 7.7,-39.3 h 11.4 l 7.6,39.3 h 0.1 l 7.5,-39.3 h 8.5 l -10.5,51 h -11.2 z"
         id="path6"
         style="fill:#009cde;fill-opacity:1" />
      <path
         class="st0"
         d="m 292.6,46.2 c 7.7,0 16.5,4 16.5,19.3 0,15.8 -8.8,19.4 -16.5,19.4 -7.7,0 -16.6,-3.7 -16.6,-19.4 0.1,-15.3 9,-19.3 16.6,-19.3 z m 0,32.4 c 5.8,0 7.2,-6.7 7.2,-13 0,-6.3 -1.3,-12.9 -7.2,-12.9 -5.9,0 -7.2,6.6 -7.2,12.9 0,6.3 1.4,13 7.2,13 z"
         id="path8"
         style="fill:#009cde;fill-opacity:1" />
      <path
         class="st0"
         d="m 313.6,53 c 0,-2.1 -0.1,-4.1 -0.3,-6.2 h 8.2 c 0.1,2.3 0.3,4.6 0.3,6.9 h 0.1 c 1.1,-2.9 3.9,-7.4 9.6,-7.4 0.5,0 1,0.1 1.5,0.2 V 55 c -0.8,-0.2 -1.7,-0.4 -2.5,-0.4 -3.7,0 -7.8,2.3 -7.8,9.3 v 20.6 h -9 z"
         id="path10"
         style="fill:#009cde;fill-opacity:1" />
      <path
         class="st0"
         d="m 336.9,29.7 h 9.1 v 54.7 h -9.1 z"
         id="path12"
         style="fill:#009cde;fill-opacity:1" />
      <path
         class="st0"
         d="M 382.9,29.7 V 78 c 0,2.1 0.1,4.3 0.3,6.4 h -8.5 c -0.2,-1.9 -0.3,-3.9 -0.3,-5.8 h -0.2 c -1.5,3.2 -4.2,6.4 -10,6.4 -9.3,0 -13.2,-8.9 -13.2,-19.3 0,-12.3 4.9,-19.4 13,-19.4 4.2,-0.2 8,2.2 9.7,6 h 0.1 V 29.7 Z m -16.3,48.6 c 5.3,0 7.1,-5.8 7.1,-12.8 0,-7.3 -2,-12.6 -7,-12.6 -5,0 -6.8,4.9 -6.8,12.4 0.1,8.7 1.5,13 6.7,13 z"
         id="path14"
         style="fill:#009cde;fill-opacity:1" />
      <path
         class="st0"
         d="m 409.8,33.5 h 9.4 v 20.7 h 15.1 V 33.5 h 9.3 v 51 h -9.3 V 61.9 h -15.1 v 22.5 h -9.4 z"
         id="path16"
         style="fill:#009cde;fill-opacity:1" />
      <path
         class="st0"
         d="m 476.7,82.6 c -3.5,1.6 -7.4,2.4 -11.2,2.4 -12.1,0 -17.4,-8.7 -17.4,-18.8 0,-11.2 5.9,-19.9 15.5,-19.9 8.1,0 15,4.7 15,20.1 v 1.8 h -21.7 c 0,6.4 2.6,10.3 9.6,10.3 5.5,0 8.2,-1.7 9.9,-2.9 z m -6.9,-20.2 c 0,-6.6 -2.2,-10 -6.3,-10 -4.8,0 -6.7,5 -6.7,10 z"
         id="path18"
         style="fill:#009cde;fill-opacity:1" />
      <path
         class="st0"
         d="m 484.4,49 c 3.7,-1.8 7.8,-2.8 11.9,-2.8 11.7,0 14.4,5.7 14.4,15.1 v 16.4 c 0,2.2 0.2,4.4 0.5,6.6 H 503 c -0.4,-1.7 -0.6,-3.4 -0.5,-5.1 h -0.1 c -2.3,3.1 -5.1,5.7 -10.5,5.7 -5.8,0 -11.2,-4 -11.2,-11 0,-10.2 8.3,-12.8 19.8,-12.8 h 1.8 v -1.4 c 0,-3.7 -1.8,-7.2 -7,-7.2 -3.7,0.1 -7.3,1.4 -10.3,3.7 z m 17.8,17 h -0.8 c -7.7,0 -12.3,1.6 -12.3,7.1 -0.2,3 2.1,5.6 5.1,5.8 0.2,0 0.5,0 0.7,0 5.4,0 7.4,-4 7.4,-10.7 V 66 Z"
         id="path20"
         style="fill:#009cde;fill-opacity:1" />
      <path
         class="st0"
         d="m 519,29.7 h 9 v 54.7 h -9 z"
         id="path22"
         style="fill:#009cde;fill-opacity:1" />
      <path
         class="st0"
         d="m 538.4,39.1 9,-2.8 v 10.5 h 7.5 v 6.6 h -7.5 V 73 c 0,4 1.5,5.2 4.1,5.2 1.2,0 2.4,-0.3 3.4,-0.8 v 6.4 c -1.9,0.8 -4,1.2 -6.1,1.2 -6.7,0 -10.5,-3.1 -10.5,-11 V 53.5 h -6 v -6.6 h 6 v -7.8 z"
         id="path24"
         style="fill:#009cde;fill-opacity:1" />
      <path
         class="st0"
         d="m 557.8,29.7 h 9 v 22 h 0.2 c 1.6,-2.3 3.7,-5.4 9.3,-5.4 8.5,0 11.1,6.3 11.1,13.9 v 24.2 h -9 V 61.9 c 0,-5.8 -1.5,-8.2 -5.2,-8.2 -4.7,0 -6.4,4 -6.4,8.8 v 21.9 h -9 z"
         id="path26"
         style="fill:#009cde;fill-opacity:1" />
      <path
         class="st0"
         d="m 241.2,98 c 10.6,0 20.3,7.9 20.3,26.2 0,18.3 -9.7,26.2 -20.3,26.2 -10.6,0 -20.3,-7.9 -20.3,-26.2 0,-18.3 9.7,-26.2 20.3,-26.2 z m 0,45.3 c 5.9,0 10.7,-5 10.7,-19.1 0,-14.1 -4.8,-19 -10.7,-19 -5.9,0 -10.7,5 -10.7,19 0,14 4.8,19.1 10.7,19.1 z"
         id="path28"
         style="fill:#009cde;fill-opacity:1" />
      <path
         class="st0"
         d="m 265.3,118.3 c 0,-2.1 -0.1,-4.1 -0.3,-6.2 h 8.2 c 0.1,2.3 0.3,4.6 0.3,6.9 h 0.1 c 1.1,-2.9 4,-7.4 9.6,-7.4 0.5,0 1,0.1 1.5,0.2 v 8.5 c -0.8,-0.2 -1.7,-0.4 -2.6,-0.4 -3.7,0 -7.8,2.3 -7.8,9.3 v 20.6 h -9 z"
         id="path30"
         style="fill:#009cde;fill-opacity:1" />
      <path
         class="st0"
         d="m 289.1,155.6 c 3.4,2 7.2,3.1 11.1,3.2 8.5,0 9.9,-5.9 9.9,-11.8 v -3.6 H 310 c -1.5,2.9 -4,6.4 -9.9,6.4 -5.2,0 -13.1,-3.5 -13.1,-18.7 0,-10.4 3.7,-19.5 13.6,-19.5 5.5,0 8,3.1 9.9,6.4 h 0.3 c 0,-2 0.2,-3.9 0.3,-5.8 h 8.2 c -0.1,2 -0.3,3.9 -0.3,5.9 v 27.7 c 0,11.8 -3.6,20.1 -17.4,20.1 -4.4,0 -8.8,-0.8 -12.9,-2.3 z m 13.1,-12.5 c 5.7,0 8,-4.1 8,-12.6 0,-7.9 -3,-12.1 -7.3,-12 -4.8,0.1 -6.6,4.5 -6.6,12.1 0,8.8 2.8,12.5 5.9,12.5 z"
         id="path32"
         style="fill:#009cde;fill-opacity:1" />
      <path
         class="st0"
         d="m 327,114.3 c 3.7,-1.9 7.8,-2.8 11.9,-2.8 11.7,0 14.4,5.7 14.4,15.1 V 143 c 0,2.2 0.2,4.4 0.5,6.6 h -8.2 c -0.4,-1.7 -0.6,-3.4 -0.5,-5.1 H 345 c -2.3,3.1 -5.1,5.7 -10.5,5.7 -5.8,0 -11.2,-4 -11.2,-11 0,-10.2 8.3,-12.8 19.8,-12.8 h 1.8 V 125 c 0,-3.7 -1.8,-7.2 -7,-7.2 -3.7,0.1 -7.3,1.4 -10.3,3.7 z m 17.8,17 H 344 c -7.7,0 -12.3,1.6 -12.3,7.1 -0.2,3 2.1,5.6 5.1,5.8 0.2,0 0.4,0 0.7,0 5.4,0 7.4,-4 7.4,-10.7 z"
         id="path34"
         style="fill:#009cde;fill-opacity:1" />
      <path
         class="st0"
         d="m 360.6,118.3 c 0,-2.1 -0.1,-4.1 -0.3,-6.2 h 8.5 c 0.1,1.9 0.3,3.9 0.3,5.8 h 0.1 c 1.3,-2.3 3.9,-6.3 10,-6.3 8.5,0 11.1,6.3 11.1,13.9 v 24.2 h -9.1 v -22.6 c 0,-5.8 -1.5,-8.2 -5.2,-8.2 -4.7,0 -6.4,4 -6.4,8.8 v 21.9 h -9 z"
         id="path36"
         style="fill:#009cde;fill-opacity:1" />
      <path
         class="st0"
         d="m 397.2,96.1 h 9.4 v 8.9 h -9.4 z m 0.2,16 h 9 v 37.6 h -9 z"
         id="path38"
         style="fill:#009cde;fill-opacity:1" />
      <path
         class="st0"
         d="M 413.5,141.9 429.6,119 H 414 v -6.9 h 24.6 v 7.7 l -15.8,23 h 16.3 v 6.9 h -25.7 v -7.8 z"
         id="path40"
         style="fill:#009cde;fill-opacity:1" />
      <path
         class="st0"
         d="m 446,114.3 c 3.7,-1.9 7.8,-2.8 11.9,-2.8 11.7,0 14.4,5.7 14.4,15.1 V 143 c 0,2.2 0.2,4.4 0.5,6.6 h -8.2 c -0.4,-1.7 -0.6,-3.4 -0.5,-5.1 H 464 c -2.3,3.1 -5.1,5.7 -10.5,5.7 -5.8,0 -11.2,-4 -11.2,-11 0,-10.2 8.3,-12.8 19.8,-12.8 h 1.8 V 125 c 0,-3.7 -1.8,-7.2 -7,-7.2 -3.7,0.1 -7.3,1.4 -10.3,3.7 z m 17.8,17 H 463 c -7.7,0 -12.3,1.6 -12.3,7.1 -0.2,3 2.1,5.6 5.1,5.8 0.2,0 0.4,0 0.7,0 5.4,0 7.4,-4 7.4,-10.7 v -2.2 z"
         id="path42"
         style="fill:#009cde;fill-opacity:1" />
      <path
         class="st0"
         d="m 482.1,104.4 9,-2.8 v 10.5 h 7.5 v 6.6 h -7.5 v 19.5 c 0,4 1.5,5.2 4.1,5.2 1.2,0 2.4,-0.2 3.4,-0.8 v 6.4 c -1.9,0.9 -4,1.3 -6.1,1.2 -6.7,0 -10.5,-3.1 -10.5,-10.9 v -20.6 h -6 v -6.6 h 6 z"
         id="path44"
         style="fill:#009cde;fill-opacity:1" />
      <path
         class="st0"
         d="m 504.1,96.1 h 9.3 v 8.9 h -9.3 z m 0.2,16 h 9.1 v 37.6 h -9 z"
         id="path46"
         style="fill:#009cde;fill-opacity:1" />
      <path
         class="st0"
         d="m 534.9,111.5 c 7.7,0 16.5,4 16.5,19.3 0,15.8 -8.8,19.4 -16.5,19.4 -7.7,0 -16.6,-3.6 -16.6,-19.4 0.1,-15.2 9,-19.3 16.6,-19.3 z m 0,32.4 c 5.8,0 7.2,-6.7 7.2,-13 0,-6.3 -1.3,-12.9 -7.2,-12.9 -5.9,0 -7.2,6.6 -7.2,12.9 0,6.3 1.4,13 7.2,13 z"
         id="path48"
         style="fill:#009cde;fill-opacity:1" />
      <path
         class="st0"
         d="m 558.6,118.3 c 0,-2.1 -0.1,-4.1 -0.3,-6.2 h 8.5 c 0.1,1.9 0.3,3.9 0.3,5.8 h 0.1 c 1.3,-2.3 3.9,-6.3 10,-6.3 8.5,0 11.1,6.3 11.1,13.9 v 24.2 h -9 v -22.6 c 0,-5.8 -1.5,-8.2 -5.2,-8.2 -4.7,0 -6.4,4 -6.4,8.8 v 21.9 h -9 z"
         id="path50"
         style="fill:#009cde;fill-opacity:1" />
      <g
         id="g640"
         style="fill:#009cde;fill-opacity:1">
        <path
           id="path642"
           class="st0"
           d="m 165.9,33 c 3.9,4.7 10.7,7.4 14.7,12.1 -2.9,-13.8 -13.5,-25.1 -26.1,-27.8 6.2,4.6 7.5,11 11.4,15.7 M 14.7,68 C 23.4,49.1 36.3,53.1 41.8,35.2 38.6,40.6 24.5,42.9 18,57 21.4,48.6 19.7,35.8 25.3,28.8 8.4,41.4 15.6,61.6 14.7,68 m 15.6,45.2 c 1.6,7.3 -3,18 4.3,28.1 -7.5,-8.4 -23.5,-10.6 -30,-23.4 8.1,31.3 29.3,24.9 38.8,31.7 C 35.6,138.3 42,130.8 30.3,113.2 m -2.4,19.7 c -4.7,-17.5 3.6,-23.6 -2.7,-40.4 -0.6,9.5 -7,14.1 -2.7,31.4 C 15,109.2 3.4,103.7 0,93.7 c 0.2,27.5 22.3,31.6 27.9,39.2 m 33.9,29.3 c -6.5,-9 -2.1,-14.1 -20.3,-30.4 3.9,6 -0.1,13.5 12.2,25.1 -12,-7.1 -28.7,-4.1 -36.7,-13.6 13.8,26.4 38,15.6 44.8,18.9 m 88.5,-5.3 c 12.3,-11.7 8.3,-19.2 12.2,-25.1 -18.3,16.3 -13.8,21.4 -20.4,30.4 6.9,-3.3 31.1,7.5 44.8,-18.9 -7.9,9.6 -24.6,6.5 -36.6,13.6 m 19.1,-15.6 c 7.3,-10.1 2.7,-20.7 4.2,-28.1 -11.7,17.6 -5.3,25.1 -13.1,36.4 9.6,-6.8 30.7,-0.4 38.8,-31.7 -6.5,12.8 -22.4,15 -29.9,23.4 m -29.2,22.2 c -6.5,-1.7 -13.2,-2.8 -20,-3 -6.2,-0.1 -12.4,0.9 -18.2,3.1 -5.8,-2.2 -12,-3.2 -18.2,-3.1 -6.8,0.2 -13.5,1.3 -20,3 -11,2.9 -20.5,5.2 -28.8,1 7.9,7 17.2,9.6 30.6,8.1 11.1,-1.2 20.1,-6.8 30.6,-6.7 h 0.4 c -6.6,3.3 -12.5,7.9 -17.3,13.5 l 5.1,0.7 c 0,0 5.3,-10.7 17.6,-13.5 12.3,2.8 17.6,13.5 17.6,13.5 l 5.1,-0.7 c -4.8,-5.6 -10.7,-10.2 -17.3,-13.5 h 0.4 c 10.5,-0.1 19.5,5.5 30.6,6.7 13.4,1.4 22.6,-1.1 30.6,-8.1 -8.3,4.2 -17.8,1.9 -28.8,-1 M 26,73.5 C 21.5,82.2 14.4,84.2 15.2,102.1 11.4,86.2 2.3,80.2 2.4,70.1 -3.9,96.7 12.9,99.8 17.3,111 16.6,95 26.8,91.8 26,73.5 M 32.3,53 c -1.6,2.2 -2.7,3.2 -6.9,6.6 -6.3,5 -10.7,12.1 -12.2,20 0.4,-9.8 -5.6,-23.8 -1.6,-34 -15.5,21.9 0.9,35 1.5,43 C 17,73.3 26.3,73.2 32.3,53 m 158.5,26.6 c -1.6,-7.9 -5.9,-15 -12.2,-20 -4.2,-3.5 -5.3,-4.4 -6.9,-6.6 6,20.2 15.3,20.3 19.3,35.6 0.6,-7.9 17,-21 1.5,-43 4,10.2 -2,24.2 -1.7,34 M 204,93.7 c -3.4,10.1 -15,15.5 -22.5,30.2 4.3,-17.3 -2.1,-21.9 -2.7,-31.4 -6.3,16.8 2,22.9 -2.7,40.4 5.6,-7.6 27.7,-11.7 27.9,-39.2 M 178,73.5 c -0.9,18.3 9.4,21.5 8.7,37.5 4.3,-11.1 21.2,-14.3 14.9,-40.9 0.1,10.2 -9,16.1 -12.8,32.1 0.8,-18.1 -6.2,-20 -10.8,-28.7 M 38.1,33 C 42,28.3 43.3,21.9 49.5,17.3 36.8,20 26.2,31.2 23.3,45 c 4,-4.7 10.9,-7.4 14.8,-12 m 124.2,2 c 5.5,18 18.4,14 27.1,32.8 -0.9,-6.3 6.3,-26.6 -10.6,-39 5.7,6.9 4,19.8 7.3,28.2 -6.6,-14.1 -20.7,-16.4 -23.8,-22 m -44,10.3 C 115,43.9 111.5,43 108,42.5 c 0,0.8 0,1.5 0,2.3 3.3,0.5 6.5,1.4 9.5,2.6 0.4,-0.7 0.7,-1.4 0.8,-2.1 m -2.6,-22.3 0.7,-0.6 -1.3,-0.6 -3.5,-0.1 -0.9,0.6 -2,-0.2 v 0.5 c 1.3,0.1 2.6,0.2 3.6,0.4 l 1.7,-0.1 z m -6.6,74.6 c 0,-0.6 -0.8,-1.2 -1.9,-1.7 H 107 c 0,0.5 -0.1,2.8 -0.1,4 1.3,-0.7 2.2,-1.3 2.2,-2.3 M 69,53.7 c 0.1,-0.4 0.2,-0.9 0.3,-1.3 -0.5,0.1 -0.9,0.2 -1.4,0.1 z M 52.9,37.6 61.1,45.8 C 51.2,56.1 45.6,69.9 45.4,84.2 H 33.8 C 34,66.7 40.8,50.1 52.9,37.6 m -5,63.8 -0.7,-0.1 -0.7,-0.7 -3.3,-0.3 1,1.4 -3,-0.6 0.8,-0.7 -0.7,-0.7 -2.2,0.9 -0.8,1.4 0.3,3.3 2.5,6 1.2,1.9 0.7,0.2 -1.9,-3.6 -0.4,-1.8 0.4,-0.4 -0.3,-1 1.1,0.2 1.8,2.6 0.4,0.2 v -1.9 l 0.7,0.4 0.2,1 1.8,0.5 0.8,-0.6 0.3,0.2 v 1.4 l 0.8,1 1,0.2 2.2,3.6 1.3,0.4 0.4,-1.7 c 2.3,3.7 4.9,7.2 8,10.3 l -8.2,8.2 C 41.2,120.3 34.2,103.8 33.8,86.5 h 11.6 c 0.1,5 1,10.1 2.5,14.9 m 11.4,-15 c 0,1.1 0.1,2.2 0.3,3.4 l -1.4,0.3 -0.3,1.4 -3,3.8 0.1,5.2 -3,1 H 50.3 C 48.7,96.6 47.9,91.6 47.7,86.4 Z m 2.6,32.7 2.6,1.5 0.5,0.4 -1.9,1.9 c -0.9,-0.9 -1.7,-1.8 -2.5,-2.8 z m 10.6,-61.9 8.2,8.2 c -1.7,1.9 -3.2,4 -4.3,6.3 H 75.8 L 74.6,72 H 74.2 L 73,73.1 74.6,72.9 76,72.6 75.7,73 74.5,73.8 h -0.6 l -1.8,1.4 -1.7,-0.2 -2.5,4.7 0.5,0.9 -1.4,1.6 -0.2,2 h -5.2 c 0.1,-10.1 4,-19.7 10.9,-27 m 8.4,33.9 0.6,-0.3 1.5,1.1 -0.7,0.5 1.7,1.1 -0.1,-1.2 0.9,-1.5 1,1 1,1.4 -1.8,0.5 0.8,1.6 1.2,-0.7 -0.2,-0.5 0.9,-0.6 0.5,-2.5 c 0.7,1.5 1.6,2.9 2.7,4.1 l -8.2,8.2 c -4,-4.2 -6.5,-9.6 -7.2,-15.4 l 1.7,1.8 h 1.6 z m -11.8,-8.7 0.2,-2.3 1.4,-0.8 2.5,0.4 0.4,0.4 c -0.2,1.3 -0.3,2.7 -0.4,4 h -2.8 z m -3.8,8 -1.1,1.7 H 62.3 L 62.2,92 c -0.3,-1.8 -0.5,-3.7 -0.6,-5.5 h 3.5 l -0.8,2.8 z M 73,113 c -0.8,-0.9 -1.7,-1.8 -2.4,-2.7 l 0.4,-2.9 -1.2,-2.8 -0.3,-4.4 -1.4,-2.7 0.3,-1.7 -1.7,-3.2 -1.4,-0.7 0.6,-1.7 -0.6,-1.3 0.6,-1.5 h 1.6 l 0.6,-0.9 h 2.7 l 0.4,0.8 -0.6,2.7 -0.3,0.5 1,2.2 -0.7,0.4 -0.5,-0.6 -0.2,0.2 0.5,1.3 0.8,1.5 h 0.4 l 0.2,-1.4 -0.4,-0.5 v -0.9 l -0.1,-1.9 0.6,-3.4 -0.6,-0.9 h 1.9 c 0.4,6.9 3.2,13.4 8,18.4 z m 69.8,11.2 c 9.9,-10.2 15.6,-23.7 15.9,-37.8 h 11.6 c -0.4,17.2 -7.3,33.7 -19.4,46 z m -3.2,-3.2 0.9,-1 -0.9,-4.5 -0.6,-0.2 0.4,-0.8 -1.9,-0.6 -0.4,1.6 -0.2,2 -0.4,0.4 -3.5,-3.5 c 7.3,-7.6 11.5,-17.5 11.9,-28 h 11.6 c -0.4,13.6 -5.8,26.5 -15.3,36.2 z m -10.2,10.9 1.1,-2.3 -0.4,-1 1.6,-1.4 v -0.8 l -1.4,-0.9 1.1,-2.3 1.7,-2.2 -1.7,-1.8 h -1.3 l -0.8,-1.3 c 0.7,-0.6 1.4,-1.2 2,-1.8 l 8.2,8.2 c -3,2.9 -6.4,5.5 -10.1,7.6 m -1.6,-22.6 -1.1,-1.1 0.8,-1.1 1.1,-2.2 -0.4,-0.6 0.7,-1.6 -0.1,-1.5 -0.4,-1.5 -1,-0.3 -0.4,0.8 -0.6,-0.2 c 0.9,-1.3 1.7,-2.8 2.4,-4.2 l 1,-0.4 0.6,-0.8 0.3,0.3 0.7,-0.8 -0.6,-0.7 0.5,-0.1 0.9,0.4 h 1.8 l 1.1,-0.6 2.8,-0.8 -0.5,-0.9 -0.2,-1.1 1.5,0.7 0.6,-0.3 -0.3,-1.2 -1.9,0.7 -2,-0.4 -1.6,-3.2 h 8.9 C 142,96.5 138,105.9 131.2,113 l -1.2,-1.2 0.5,-1.6 -0.9,-3.6 z m -4.2,-43.6 8.2,-8.2 c 1.9,2.1 3.6,4.4 5.1,6.8 l -1,0.3 0.1,1.8 3,1.9 c 0.8,1.7 1.4,3.4 1.9,5.2 l -0.5,0.8 -1.1,0.8 -0.3,1.7 -0.8,0.4 -0.6,0.8 -0.6,-0.3 h -1.1 l 0.6,-0.9 0.5,-2.3 0.8,-0.5 -2.2,-2.1 -1.6,0.6 -0.4,1.6 -1,1.1 -1.1,-0.9 -0.4,-1 0.6,-0.4 0.3,0.6 0.5,-0.2 -0.2,-1 h -0.7 v 0.4 l -0.5,0.1 -2.5,-3 -0.9,-0.7 0.3,-0.3 0.8,-0.3 -0.8,-0.3 c 0,0 -0.9,0.2 -1,0.2 l 0.5,0.7 h -1.3 c -0.8,-1.3 -1.6,-2.4 -2.6,-3.4 m 1.3,44.7 -2.5,-0.7 -0.8,0.3 -1.4,-1.1 -1.3,-0.5 c 0.7,-0.5 1.3,-1 1.9,-1.5 l 2.1,1.5 1.6,0.8 0.8,0.8 z m -4.4,-38.5 1,-0.2 v -0.2 l -1,-0.7 0.3,-2.2 1.2,-1.3 c 0.8,0.9 1.5,1.8 2.2,2.8 l -0.4,1.3 -1.1,-0.8 -0.9,0.2 0.4,0.8 h 0.4 l -0.5,1.2 -0.3,-0.5 z m 13.9,8 2.1,-1.1 2.1,-0.3 0.5,-1 1.2,-0.7 0.5,-1 0.4,-1.7 c 0.2,0.6 0.3,1.2 0.5,1.8 l -1.1,3.3 v 1.1 L 142,78 c 0.3,2 0.5,4.1 0.6,6.1 h -10.2 l -0.2,-0.9 1.2,-0.9 0.2,-0.6 0.5,-0.4 1.4,-0.2 0.1,-0.6 z m 2.3,-27.2 2.8,0.1 0.7,0.8 -0.3,1.2 3.9,2.4 0.8,-0.1 4.9,5.7 2,-0.7 c 3.2,6.9 4.9,14.5 5,22.1 h -11.6 c 0,-3 -0.4,-5.9 -1.1,-8.8 l 0.5,-0.7 0.7,-3.7 -0.5,-3.9 -1.4,-4.5 -3.2,-4.7 0.8,0.4 0.4,-0.4 -2.6,-1.8 -0.2,0.6 2.6,3.7 1.5,3 1,3 0.3,2 0.5,3.4 -1,0.1 c 0,0 -1.1,-2.1 -1.5,-3 l 0.5,-0.8 -1,-1.4 v -1.3 l -0.7,-0.9 -0.9,0.1 c -0.3,-0.6 -0.6,-1.2 -1,-1.7 l 0.6,0.3 0.2,-0.2 -0.3,-0.7 0.8,-0.4 -0.3,-0.4 -1.1,0.4 0.4,-1.8 -0.7,-0.4 -0.6,1.4 c -1.3,-1.9 -2.7,-3.7 -4.2,-5.4 z m 14.8,-14.9 c 12,12.5 18.7,29.1 18.9,46.4 h -11.6 c -0.1,-8.6 -2.1,-17.1 -6,-24.8 l 0.1,-0.2 0.8,0.4 0.2,-0.6 -2.1,-3.6 -2.5,-3.4 -2.9,-2.4 c -1,-1.2 -2,-2.4 -3.1,-3.6 z m -34.2,68.9 v 0 0 0 m -15.2,48.7 c 39,0 70.6,-31.7 70.5,-70.7 0,-36.2 -27.4,-66.5 -63.4,-70.2 l -0.1,0.4 c -0.1,0.7 -0.3,1.3 -0.4,1.9 15.5,1.5 30,8.3 41.1,19.2 l -7.8,7.8 0.3,-1.4 -1,-0.5 -1.3,0.1 0.3,-0.9 -0.9,-3.2 -1.9,-2.1 -6.1,-3.2 -0.5,0.6 -1.1,0.3 c 2.1,3 3.2,6.6 3.2,10.2 0,0.5 0,0.9 0,1.4 l 3,3.8 -1.4,0.3 0.9,1.4 -2.7,2.7 -1.1,-2 c -0.5,1.4 -1.2,2.8 -2,4 l 0.6,0.5 -8.3,8.2 c -0.5,-0.5 -1,-0.9 -1.5,-1.4 -0.8,0.4 -1.6,0.7 -2.4,1 l 0.7,0.5 -0.4,0.4 -1,0.5 -0.4,1 -0.6,-0.6 -1.7,0.6 0.5,0.8 1.2,-0.3 0.8,0.1 0.1,-0.4 0.6,-0.3 0.2,-0.3 1.1,-0.3 h 0.8 l 0.5,0.4 -3.2,3.3 -0.2,-0.3 -3.4,0.6 -0.8,0.8 -0.7,0.1 2.1,-2 -0.8,-0.4 -2,2.6 0.6,-0.1 v 1 l 0.7,0.3 0.1,1 -1.2,-0.2 -1.2,0.2 -3,-1.5 c 0,0 -0.2,8 -0.2,12 7,2.4 14.5,5.8 14.5,14.8 0.1,3.8 -1.9,7.4 -5.1,9.5 v 0 l -0.2,0.1 v 0 l -0.2,0.2 c -2.8,1.9 -6.5,2.9 -9.7,3.9 l -0.1,6.3 c 5.1,2.5 11.2,6.2 10.6,16.6 -0.1,2.6 -1.1,3.3 -1.9,3.5 v 0 c -3,0.7 -6.1,1.2 -9.1,1.4 0,0.8 0,1.6 0,2.3 13.2,-0.9 25.6,-6.4 35.2,-15.5 l 8.2,8.2 c -26.3,25.4 -68,25.4 -94.4,0.2 l 8.2,-8.2 c 9.5,8.9 21.8,14.3 34.8,15.3 0,-0.7 0,-1.5 0,-2.3 -12.4,-1 -24,-6.1 -33,-14.7 l 2.1,-2.2 3,0.3 1.6,-1.7 4.2,0.2 0.6,-1.5 -0.2,-0.6 c 6.2,4.7 13.6,7.7 21.4,8.5 0,-0.9 0,-1.7 0,-2.3 -8.6,-1 -16.6,-4.6 -23,-10.5 l 8.2,-8.2 c 2,1.8 4.2,3.3 6.7,4.5 0.2,-0.8 0.4,-1.5 0.8,-2.2 -2.1,-1.1 -4.1,-2.4 -5.8,-3.9 l 8.2,-8.2 c 1.3,1 2.8,1.9 4.3,2.4 0,-0.8 0,-1.7 0,-2.5 -1,-0.4 -1.9,-1 -2.7,-1.6 l 2.3,-2.3 C 96,92.7 95.2,92.4 94.4,92.1 l -1.6,1.6 C 92,92.8 91.3,91.8 90.8,90.8 89.4,90.2 88,89.5 86.7,88.6 81.9,85.7 79,80.4 79.1,74.7 79,70.9 80.1,67.1 82.4,64.1 l -8.2,-8.2 c 6,-5.8 13.7,-9.5 21.9,-10.8 0,-0.8 0,-1.6 0,-2.3 -8.8,1.3 -17.1,5.3 -23.5,11.5 l -1.4,-1.4 c -0.3,0.5 -0.7,1.2 -1.1,2.1 L 71,55.9 C 63.7,63.6 59.6,73.8 59.4,84.4 H 47.7 c 0.2,-13.7 5.5,-26.8 15,-36.8 l 3.7,3.7 c 0.2,0 0.3,0 0.5,0 0.7,-0.1 1.5,-0.3 2.1,-0.6 L 64.3,46 c 2.5,-2.4 5.2,-4.6 8.1,-6.5 0.2,-0.6 0.3,-1.2 0.6,-1.7 0.5,-0.8 1.1,-1.6 1.8,-2.4 -4.4,2.4 -8.4,5.4 -12,8.9 l -8.2,-8.2 c 11,-10.7 25.3,-17.4 40.7,-19 0,-0.3 -0.1,-0.5 -0.1,-0.5 C 95.1,16 95,15.5 94.9,14.8 56,18.8 27.9,53.5 32,92.3 c 3.8,35.9 34,63.2 70.1,63.1 m 34.7,-122.1 -0.7,-1.1 -1.5,-0.8 -1.2,0.9 1.5,0.8 1.7,1.2 z m -7,32.8 0.1,0.9 2,-0.6 0.6,-1.2 -1.4,-1.8 0.7,-1.1 1.9,1.3 0.3,-0.3 -0.4,-0.3 -0.4,-0.8 0.8,-0.4 -0.8,-1 -1.8,0.9 -0.6,1.1 -0.4,1 0.8,1.3 -0.3,0.6 z m -83.8,52 0.1,-0.5 -1,-2.3 -1.2,-0.5 z M 93.3,74.5 c 0,2 1.2,3.3 3.3,4.5 0,0 0,-0.3 0,-0.9 L 95.3,76.7 96,75.4 96.6,75.2 C 96.5,72.9 96.5,70.4 96.5,70 h -0.1 c -2,1.2 -3,2.6 -3.1,4.5"
           style="fill:#009cde;fill-opacity:1" />
      </g>
      <g
         id="g644"
         style="fill:#009cde;fill-opacity:1">
        <path
           id="path646"
           class="st0"
           d="m 106.3,124.8 c 3.6,1.8 7,4.4 8.4,9.2 0.6,-8 -3.9,-11.4 -8.3,-13.8 l -0.1,4.6"
           style="fill:#009cde;fill-opacity:1" />
      </g>
      <g
         id="g648"
         style="fill:#009cde;fill-opacity:1">
        <path
           id="path650"
           class="st0"
           d="m 130.5,43.7 c 0,-7.3 -5.3,-15.3 -18.2,-18.1 -1.3,-0.2 -2.6,-0.4 -3.9,-0.5 0,1.1 -0.1,3.6 -0.1,3.6 0,0.8 -0.1,3.7 -0.1,4.3 0.8,0.1 1.7,0.2 2.5,0.3 7.5,1.8 10.2,6.1 10.2,10.3 0,6.9 -5.9,9.5 -13.1,11.5 l -2.4,0.6 c -2.2,0.5 -4.5,1.1 -6.7,1.7 -0.8,0.2 -1.6,0.4 -2.4,0.7 -8,2.4 -14.9,6.3 -14.9,16.2 0,9.9 7.9,13.5 15.6,15.9 0,-2.8 -0.1,-5.7 -0.2,-8.5 C 93.3,80.1 91,78 91,74.5 c 0,-3.5 2.2,-5.5 5.5,-7 0.7,-0.3 1.5,-0.6 2.4,-0.9 1.9,-0.7 4.1,-1.2 6.3,-1.8 l 2.4,-0.6 c 10.8,-2.6 23,-6 22.9,-20.5"
           style="fill:#009cde;fill-opacity:1" />
      </g>
      <g
         id="g652"
         style="fill:#009cde;fill-opacity:1">
        <path
           id="path654"
           class="st0"
           d="m 91.6,113 c 0,4 2.9,6.1 5.8,7.8 0,-0.7 -0.1,-6.8 -0.1,-6.9 0.1,-1.2 1.2,-2 2.2,-2.4 1.5,-0.7 3.1,-1.3 4.7,-1.8 0.9,-0.3 1.6,-0.6 2.4,-0.8 5.9,-1.8 12.7,-4 12.7,-11.2 0,-7.2 -5.8,-10.1 -12.2,-12.3 -0.1,2.3 -0.1,5.6 -0.2,7.9 2.7,1 4.5,2.3 4.5,4.4 0,2.6 -2.7,4 -4.7,4.8 -0.8,0.3 -2,0.7 -2.4,0.8 -1.6,0.5 -3.2,1 -4.8,1.6 -0.8,0.3 -1.6,0.6 -2.4,1 -2.6,1.4 -5.5,3.5 -5.5,7.1"
           style="fill:#009cde;fill-opacity:1" />
      </g>
      <g
         id="g656"
         style="fill:#009cde;fill-opacity:1">
        <path
           id="path658"
           class="st0"
           d="m 95.6,26.2 c -2.4,0.8 -4.8,1.7 -7.1,2.9 -2.5,0.8 -6.1,1 -9.8,5 -1.2,1.4 -2.3,2.9 -3.4,4.4 -1.1,1.6 -1.2,4.2 -2,5.5 -1.2,2 -0.9,3.2 -0.9,3.2 v 0 c -0.2,0.9 -0.7,1.8 -1.3,2.5 -1.2,1.4 -3,2.1 -4.8,1.8 1.7,0.8 4,-0.3 4,-0.3 -0.4,1.1 -0.7,2.2 -0.9,3.3 1.9,-4.3 3.6,-5.8 4.2,-6.3 0.8,0.2 2.5,0.1 5.6,-1.7 3.5,-2 8.8,-5.3 10.3,-7.4 1.6,-2.1 3.7,-3.8 6.2,-4.7 0,-3 -0.1,-5.8 -0.1,-8.2 m -14.8,13.3 -1.8,0.4 2.2,-3.6 2.5,0.1 -2.9,3.1"
           style="fill:#009cde;fill-opacity:1" />
      </g>
      <g
         id="g660"
         style="fill:#009cde;fill-opacity:1">
        <path
           id="path662"
           class="st0"
           d="m 102.9,112.5 c -0.3,0.1 -1.2,0.5 -1.8,0.7 -0.6,0.2 -1.3,0.5 -1.3,0.7 0,0 0.6,30.8 0.6,31.4 0,6.3 3.2,6.4 3.2,0 0,-0.4 0.7,-33.3 0.7,-33.3 0,0 -0.9,0.3 -1.4,0.5"
           style="fill:#009cde;fill-opacity:1" />
      </g>
      <g
         id="g664"
         style="fill:#009cde;fill-opacity:1">
        <path
           id="path666"
           class="st0"
           d="m 99.5,102.3 c 1,-0.3 2,-0.7 2.9,-0.9 0.7,-0.2 1.3,-0.4 2,-0.6 0,-1.9 0.6,-28.7 0.7,-33.5 -2.1,0.5 -4.2,1.1 -6.2,1.8 0.1,3.6 0.6,30.3 0.6,33.2"
           style="fill:#009cde;fill-opacity:1" />
      </g>
      <g
         id="g668"
         style="fill:#009cde;fill-opacity:1">
        <path
           id="path670"
           class="st0"
           d="m 102.2,0 c -9,0 -5.2,13.4 -4.5,17.8 0,0.2 0.7,30.3 0.9,37.2 1.4,-0.4 2.7,-0.7 4.1,-1 l 2.7,-0.7 c 0.1,-6.7 0.8,-35.4 0.8,-35.6 0.6,-4.6 5.3,-17.7 -4,-17.7"
           style="fill:#009cde;fill-opacity:1" />
      </g>
    </g>
  </g>
</svg>
